<svg xmlns="http://www.w3.org/2000/svg" xmlns:xlink="http://www.w3.org/1999/xlink" viewBox="0 0 370.92 349.95" xmlns:v="https://vecta.io/nano"><style><![CDATA[.A{isolation:isolate}.CJ,.CP,.CW,.AC{mix-blend-mode:multiply}.CI,.CL,.CO,.CR,.CU,.CV,.An,.Ao{mix-blend-mode:color-dodge}.Du,.Dv,.Dw,.Dx,.Dy,.Dz,.EA,.EB,.EC,.ED,.EE,.EF,.Aq{mix-blend-mode:screen}.EG{fill:#ced3f4}.EH{fill:#afb6e5}.EI{fill:#828abd}]]></style><defs><linearGradient id="A" x1="141.83" y1="2.13" x2="249.08" y2="333.19" xlink:href="#Co"><stop offset="0" stop-color="#b0b7e6"/><stop offset=".19" stop-color="#b2b8e6"/><stop offset=".28" stop-color="#b3b9e6"/><stop offset=".41" stop-color="#afb6e5"/><stop offset=".91" stop-color="#afb6e5"/><stop offset="1" stop-color="#b0b7e6"/></linearGradient><linearGradient id="B" x1="141.73" y1="2.18" x2="248.97" y2="333.23" xlink:href="#Co"><stop offset="0" stop-color="#b2b9e6"/><stop offset=".19" stop-color="#b4bbe7"/><stop offset=".28" stop-color="#b7bde7"/><stop offset=".41" stop-color="#afb6e5"/><stop offset=".91" stop-color="#afb6e5"/><stop offset="1" stop-color="#b2b9e6"/></linearGradient><linearGradient id="C" x1="141.62" y1="2.22" x2="248.86" y2="333.26" xlink:href="#Co"><stop offset="0" stop-color="#b3bae7"/><stop offset=".19" stop-color="#b7bde9"/><stop offset=".28" stop-color="#bac0e9"/><stop offset=".41" stop-color="#afb6e5"/><stop offset=".91" stop-color="#afb6e5"/><stop offset="1" stop-color="#b3bae7"/></linearGradient><linearGradient id="D" x1="141.52" y1="2.26" x2="248.76" y2="333.3" xlink:href="#Co"><stop offset="0" stop-color="#b5bbe8"/><stop offset=".19" stop-color="#b9c0ea"/><stop offset=".28" stop-color="#bec4ea"/><stop offset=".41" stop-color="#afb6e5"/><stop offset=".91" stop-color="#afb6e5"/><stop offset="1" stop-color="#b5bbe8"/></linearGradient><linearGradient id="E" x1="141.42" y1="2.31" x2="248.65" y2="333.33" xlink:href="#Co"><stop offset="0" stop-color="#b6bde8"/><stop offset=".19" stop-color="#bcc2eb"/><stop offset=".28" stop-color="#c2c7eb"/><stop offset=".41" stop-color="#afb6e5"/><stop offset=".91" stop-color="#afb6e5"/><stop offset="1" stop-color="#b6bde8"/></linearGradient><linearGradient id="F" x1="141.31" y1="2.35" x2="248.54" y2="333.37" xlink:href="#Co"><stop offset="0" stop-color="#b8bee9"/><stop offset=".19" stop-color="#bec5ec"/><stop offset=".28" stop-color="#c6cbec"/><stop offset=".39" stop-color="#b2b9e6"/><stop offset=".41" stop-color="#afb6e5"/><stop offset=".91" stop-color="#afb6e5"/><stop offset="1" stop-color="#b8bee9"/></linearGradient><linearGradient id="G" x1="141.21" y1="2.39" x2="248.43" y2="333.4" xlink:href="#Co"><stop offset="0" stop-color="#b9bfea"/><stop offset=".19" stop-color="#c1c7ee"/><stop offset=".28" stop-color="#caceee"/><stop offset=".38" stop-color="#b6bde7"/><stop offset=".41" stop-color="#afb6e5"/><stop offset=".91" stop-color="#afb6e5"/><stop offset="1" stop-color="#b9bfea"/></linearGradient><linearGradient id="H" x1="141.1" y1="2.44" x2="248.33" y2="333.44" xlink:href="#Co"><stop offset="0" stop-color="#bac1ea"/><stop offset=".19" stop-color="#c4c9ef"/><stop offset=".28" stop-color="#cdd2ef"/><stop offset=".37" stop-color="#b9c0e8"/><stop offset=".41" stop-color="#afb6e5"/><stop offset=".91" stop-color="#afb6e5"/><stop offset="1" stop-color="#bac1ea"/></linearGradient><linearGradient id="I" x1="141" y1="2.48" x2="248.22" y2="333.47" xlink:href="#Co"><stop offset="0" stop-color="#bcc2eb"/><stop offset=".19" stop-color="#c6ccf0"/><stop offset=".28" stop-color="#d0d4f0"/><stop offset=".28" stop-color="#d1d5f0"/><stop offset=".36" stop-color="#bdc3ea"/><stop offset=".41" stop-color="#afb6e5"/><stop offset=".91" stop-color="#afb6e5"/><stop offset=".99" stop-color="#bac0ea"/><stop offset="1" stop-color="#bcc2eb"/></linearGradient><linearGradient id="J" x1="140.89" y1="2.53" x2="248.11" y2="333.51" xlink:href="#Co"><stop offset="0" stop-color="#bdc3ec"/><stop offset=".19" stop-color="#c9cef1"/><stop offset=".27" stop-color="#d3d7f1"/><stop offset=".28" stop-color="#d5d9f1"/><stop offset=".35" stop-color="#c1c7eb"/><stop offset=".41" stop-color="#afb6e5"/><stop offset=".91" stop-color="#afb6e5"/><stop offset=".98" stop-color="#bac0ea"/><stop offset="1" stop-color="#bdc3ec"/></linearGradient><linearGradient id="K" x1="140.79" y1="2.57" x2="248" y2="333.54" xlink:href="#Co"><stop offset="0" stop-color="#bfc5ec"/><stop offset=".19" stop-color="#cbd1f3"/><stop offset=".26" stop-color="#d5d9f3"/><stop offset=".28" stop-color="#d9dcf3"/><stop offset=".35" stop-color="#c5caec"/><stop offset=".41" stop-color="#afb6e5"/><stop offset=".91" stop-color="#afb6e5"/><stop offset=".98" stop-color="#bac0ea"/><stop offset="1" stop-color="#bfc5ec"/></linearGradient><linearGradient id="L" x1="140.68" y1="2.61" x2="247.89" y2="333.58" xlink:href="#Co"><stop offset="0" stop-color="#c0c6ed"/><stop offset=".19" stop-color="#ced3f4"/><stop offset=".26" stop-color="#d8dcf4"/><stop offset=".28" stop-color="#dde0f4"/><stop offset=".34" stop-color="#c9ceee"/><stop offset=".41" stop-color="#afb6e5"/><stop offset=".91" stop-color="#afb6e5"/><stop offset=".97" stop-color="#bac0ea"/><stop offset="1" stop-color="#c0c6ed"/></linearGradient><linearGradient id="M" x1="140.58" y1="2.66" x2="247.79" y2="333.61" xlink:href="#Co"><stop offset="0" stop-color="#c2c7ee"/><stop offset=".19" stop-color="#d0d6f5"/><stop offset=".25" stop-color="#dadef5"/><stop offset=".28" stop-color="#e1e3f5"/><stop offset=".34" stop-color="#cdd1ef"/><stop offset=".41" stop-color="#afb6e5"/><stop offset=".91" stop-color="#afb6e5"/><stop offset=".97" stop-color="#bac0ea"/><stop offset="1" stop-color="#c2c7ee"/></linearGradient><linearGradient id="N" x1="140.47" y1="2.7" x2="247.68" y2="333.65" xlink:href="#Co"><stop offset="0" stop-color="#c3c9ee"/><stop offset=".19" stop-color="#d3d8f6"/><stop offset=".25" stop-color="#dde1f6"/><stop offset=".28" stop-color="#e4e7f6"/><stop offset=".34" stop-color="#d0d5f0"/><stop offset=".41" stop-color="#afb6e5"/><stop offset=".91" stop-color="#afb6e5"/><stop offset=".97" stop-color="#bac0ea"/><stop offset="1" stop-color="#c3c9ee"/></linearGradient><linearGradient id="O" x1="140.37" y1="2.75" x2="247.57" y2="333.68" xlink:href="#Co"><stop offset="0" stop-color="#c4caef"/><stop offset=".19" stop-color="#d6daf8"/><stop offset=".25" stop-color="#e0e3f8"/><stop offset=".28" stop-color="#e8eaf8"/><stop offset=".33" stop-color="#d4d8f1"/><stop offset=".41" stop-color="#afb6e5"/><stop offset=".91" stop-color="#afb6e5"/><stop offset=".96" stop-color="#bac0ea"/><stop offset="1" stop-color="#c4caef"/></linearGradient><linearGradient id="P" x1="140.26" y1="2.79" x2="247.46" y2="333.72" xlink:href="#Co"><stop offset="0" stop-color="#c6cbf0"/><stop offset=".19" stop-color="#d8ddf9"/><stop offset=".25" stop-color="#e2e6f9"/><stop offset=".28" stop-color="#eceef9"/><stop offset=".33" stop-color="#d8dcf3"/><stop offset=".41" stop-color="#afb6e5"/><stop offset=".91" stop-color="#afb6e5"/><stop offset=".96" stop-color="#bac0ea"/><stop offset="1" stop-color="#c6cbf0"/></linearGradient><linearGradient id="Q" x1="140.16" y1="2.83" x2="247.36" y2="333.75" xlink:href="#Co"><stop offset="0" stop-color="#c7cdf0"/><stop offset=".19" stop-color="#dbdffa"/><stop offset=".24" stop-color="#e5e8fa"/><stop offset=".28" stop-color="#f0f1fa"/><stop offset=".33" stop-color="#dcdff4"/><stop offset=".41" stop-color="#afb6e5"/><stop offset=".91" stop-color="#afb6e5"/><stop offset=".96" stop-color="#bac0ea"/><stop offset="1" stop-color="#c7cdf0"/></linearGradient><linearGradient id="R" x1="140.05" y1="2.88" x2="247.25" y2="333.79" xlink:href="#Co"><stop offset="0" stop-color="#c9cef1"/><stop offset=".19" stop-color="#dde2fb"/><stop offset=".24" stop-color="#e7eafb"/><stop offset=".28" stop-color="#f4f5fb"/><stop offset=".33" stop-color="#e0e3f5"/><stop offset=".41" stop-color="#afb6e5"/><stop offset=".91" stop-color="#afb6e5"/><stop offset=".96" stop-color="#bac0ea"/><stop offset="1" stop-color="#c9cef1"/></linearGradient><linearGradient id="S" x1="139.95" y1="2.92" x2="247.14" y2="333.82" xlink:href="#Co"><stop offset="0" stop-color="#cacff2"/><stop offset=".19" stop-color="#e0e4fd"/><stop offset=".24" stop-color="#eaedfd"/><stop offset=".28" stop-color="#f7f8fd"/><stop offset=".32" stop-color="#e3e6f6"/><stop offset=".41" stop-color="#b1b8e6"/><stop offset=".41" stop-color="#afb6e5"/><stop offset=".91" stop-color="#afb6e5"/><stop offset=".95" stop-color="#bac0ea"/><stop offset="1" stop-color="#cacff2"/></linearGradient><linearGradient id="T" x1="139.84" y1="2.97" x2="247.03" y2="333.86" xlink:href="#Co"><stop offset="0" stop-color="#ccd1f2"/><stop offset=".19" stop-color="#e2e7fe"/><stop offset=".24" stop-color="#eceffe"/><stop offset=".28" stop-color="#fbfcfe"/><stop offset=".32" stop-color="#e7eaf8"/><stop offset=".4" stop-color="#b5bbe7"/><stop offset=".41" stop-color="#afb6e5"/><stop offset=".91" stop-color="#afb6e5"/><stop offset=".95" stop-color="#bac0ea"/><stop offset="1" stop-color="#ccd1f2"/></linearGradient><linearGradient id="U" x1="139.74" y1="3.01" x2="246.92" y2="333.89" xlink:href="#Co"><stop offset="0" stop-color="#cdd2f3"/><stop offset=".19" stop-color="#e5e9ff"/><stop offset=".24" stop-color="#eff2ff"/><stop offset=".28" stop-color="#fff"/><stop offset=".32" stop-color="#ebedf9"/><stop offset=".4" stop-color="#b9bfe8"/><stop offset=".41" stop-color="#afb6e5"/><stop offset=".91" stop-color="#afb6e5"/><stop offset=".95" stop-color="#bac0ea"/><stop offset="1" stop-color="#cdd2f3"/></linearGradient><linearGradient id="V" x1="-30.39" y1="259.26" x2="347.82" y2="104.49" xlink:href="#Co"><stop offset="0" stop-color="#afb6e5"/><stop offset=".14" stop-color="#b6bce8"/><stop offset=".35" stop-color="#c8cdf1"/><stop offset=".58" stop-color="#e5e9ff"/><stop offset=".86" stop-color="#f5f6ff"/><stop offset="1" stop-color="#fff"/></linearGradient><linearGradient id="W" x1="116.84" y1="43.04" x2="283.99" y2="361.76" xlink:href="#Co"><stop offset=".01" stop-color="#273b98"/><stop offset=".28" stop-color="#2c329e"/><stop offset="1" stop-color="#361cac"/></linearGradient><linearGradient id="X" x1="270.23" y1="161.83" x2="215.8" y2="132.67" xlink:href="#V"/><linearGradient id="Y" x1="322.64" y1="-174.16" x2="120.79" y2="210.82" xlink:href="#Co"><stop offset="0" stop-color="#f36dd4"/><stop offset=".15" stop-color="#bb6df3"/><stop offset=".46" stop-color="#836df3"/><stop offset=".72" stop-color="#5277f7"/><stop offset="1" stop-color="#6cf"/></linearGradient><linearGradient id="Z" x1="305.05" y1="195.4" x2="327.61" y2="229.23" xlink:href="#Co"><stop offset=".04" stop-color="#f03d53"/><stop offset=".21" stop-color="#f24c59"/><stop offset=".54" stop-color="#f87567"/><stop offset=".63" stop-color="#fa806b"/><stop offset=".87" stop-color="#f03d53"/></linearGradient><linearGradient id="a" x1="347.46" y1="268.89" x2="303.61" y2="169.28" xlink:href="#Co"><stop offset="0" stop-color="#f03d53"/><stop offset=".2" stop-color="#f03d53"/><stop offset=".31" stop-color="#f34c56"/><stop offset=".52" stop-color="#f9735d"/><stop offset=".63" stop-color="#f78774"/><stop offset=".72" stop-color="#fc7b65"/><stop offset=".78" stop-color="#f8655e"/><stop offset=".85" stop-color="#f34f58"/><stop offset=".93" stop-color="#f14154"/><stop offset=".99" stop-color="#f03d53"/></linearGradient><linearGradient id="b" x1="271.28" y1="265.74" x2="337.39" y2="197.33" xlink:href="#Co"><stop offset=".02" stop-color="#fe5430"/><stop offset=".45" stop-color="#f74941"/><stop offset="1" stop-color="#f03d53"/></linearGradient><radialGradient id="c" cx="333.89" cy="209.72" r="42.88" xlink:href="#Co"><stop offset="0" stop-color="#fff"/><stop offset="1"/></radialGradient><radialGradient id="d" cx="315.97" cy="217.79" r="15.8" xlink:href="#c"/><radialGradient id="e" cx="124.9" cy="87.98" r="49.02" xlink:href="#Co"><stop offset="0" stop-color="#836df3"/><stop offset=".11" stop-color="#6655bd"/><stop offset=".23" stop-color="#4b3e8b"/><stop offset=".36" stop-color="#342b60"/><stop offset=".48" stop-color="#211c3e"/><stop offset=".61" stop-color="#130f23"/><stop offset=".73" stop-color="#08070f"/><stop offset=".86" stop-color="#020204"/><stop offset="1"/></radialGradient><linearGradient id="f" x1="-45.98" y1="80.08" x2="99.89" y2="112.09" xlink:href="#V"/><linearGradient id="g" x1="21.04" y1="42.82" x2="70.56" y2="142.02" xlink:href="#Co"><stop offset="0" stop-color="#cdd2f3"/><stop offset=".43" stop-color="#e5e9ff"/><stop offset=".48" stop-color="#eff2ff"/><stop offset=".54" stop-color="#fff"/><stop offset=".59" stop-color="#ebedf9"/><stop offset=".7" stop-color="#b9bfe8"/><stop offset=".72" stop-color="#afb6e5"/><stop offset=".91" stop-color="#afb6e5"/><stop offset=".95" stop-color="#bac0ea"/><stop offset="1" stop-color="#cdd2f3"/></linearGradient><linearGradient id="h" x1="95.22" y1="193.97" x2="-7.92" y2="69.16" xlink:href="#Y"/><linearGradient id="i" x1="98.98" y1="190.87" x2="-4.16" y2="66.05" xlink:href="#Y"/><linearGradient id="j" x1="97.48" y1="192.1" x2="-5.66" y2="67.29" xlink:href="#Y"/><linearGradient id="k" x1="102.74" y1="187.76" x2="-.4" y2="62.94" xlink:href="#Y"/><linearGradient id="l" x1="108.76" y1="182.78" x2="5.62" y2="57.97" xlink:href="#Y"/><linearGradient id="m" x1="111.02" y1="180.91" x2="7.88" y2="56.1" xlink:href="#Y"/><linearGradient id="n" x1="105" y1="185.89" x2="1.86" y2="61.07" xlink:href="#Y"/><linearGradient id="o" x1="93.72" y1="195.21" x2="-9.42" y2="70.39" xlink:href="#Y"/><linearGradient id="p" x1="95.98" y1="193.34" x2="-7.15" y2="68.52" xlink:href="#Y"/><linearGradient id="q" x1="108.79" y1="182.76" x2="5.65" y2="57.94" xlink:href="#Y"/><linearGradient id="r" x1="112.55" y1="179.65" x2="9.41" y2="54.83" xlink:href="#Y"/><linearGradient id="s" x1="106.53" y1="184.63" x2="3.39" y2="59.81" xlink:href="#Y"/><linearGradient id="t" x1="116.31" y1="184.2" x2="13.17" y2="59.39" xlink:href="#Y"/><linearGradient id="u" x1="85.99" y1="181.24" x2="-17.15" y2="56.43" xlink:href="#Y"/><linearGradient id="v" x1="102.77" y1="187.73" x2="-.37" y2="62.92" xlink:href="#Y"/><linearGradient id="w" x1="90.99" y1="187.29" x2="-12.15" y2="62.48" xlink:href="#Y"/><linearGradient id="x" x1="105.77" y1="185.26" x2="2.63" y2="60.44" xlink:href="#Y"/><linearGradient id="y" x1="107.26" y1="184.02" x2="4.12" y2="59.2" xlink:href="#Y"/><linearGradient id="z" x1="90.01" y1="183.06" x2="-13.13" y2="58.25" xlink:href="#Y"/><linearGradient id="AA" x1="109.53" y1="182.15" x2="6.39" y2="57.34" xlink:href="#Y"/><linearGradient id="AB" x1="96.24" y1="190.61" x2="-6.9" y2="65.79" xlink:href="#Y"/><linearGradient id="AC" x1="101.24" y1="189" x2="-1.9" y2="64.18" xlink:href="#Y"/><linearGradient id="AD" x1="99.74" y1="190.23" x2="-3.4" y2="65.42" xlink:href="#Y"/><linearGradient id="AE" x1="104.27" y1="186.5" x2="1.13" y2="61.68" xlink:href="#Y"/><linearGradient id="AF" x1="117.81" y1="175.31" x2="14.67" y2="50.49" xlink:href="#Y"/><linearGradient id="AG" x1="115.55" y1="177.18" x2="12.41" y2="52.36" xlink:href="#Y"/><linearGradient id="AH" x1="121.31" y1="190.25" x2="18.17" y2="65.44" xlink:href="#Y"/><linearGradient id="AI" x1="108.03" y1="183.39" x2="4.89" y2="58.57" xlink:href="#Y"/><linearGradient id="AJ" x1="113.29" y1="179.04" x2="10.15" y2="54.23" xlink:href="#Y"/><linearGradient id="AK" x1="110.29" y1="196.83" x2="7.15" y2="72.01" xlink:href="#Y"/><linearGradient id="AL" x1="102.01" y1="188.37" x2="-1.13" y2="63.55" xlink:href="#Y"/><linearGradient id="AM" x1="94.67" y1="194.43" x2="-8.47" y2="69.61" xlink:href="#Y"/><linearGradient id="AN" x1="105.03" y1="185.86" x2="1.89" y2="61.05" xlink:href="#Y"/><linearGradient id="AO" x1="120.07" y1="173.44" x2="16.93" y2="48.62" xlink:href="#Y"/><linearGradient id="AP" x1="101.44" y1="188.83" x2="-1.7" y2="64.02" xlink:href="#Y"/><linearGradient id="AQ" x1="110.96" y1="180.97" x2="7.82" y2="56.15" xlink:href="#Y"/><linearGradient id="AR" x1="92.41" y1="196.3" x2="-10.73" y2="71.48" xlink:href="#Y"/><linearGradient id="AS" x1="96.93" y1="192.56" x2="-6.21" y2="67.75" xlink:href="#Y"/><linearGradient id="AT" x1="99.18" y1="190.7" x2="-3.96" y2="65.88" xlink:href="#Y"/><linearGradient id="AU" x1="107.2" y1="184.08" x2="4.06" y2="59.26" xlink:href="#Y"/><linearGradient id="AV" x1="108.22" y1="183.23" x2="5.08" y2="58.42" xlink:href="#Y"/><linearGradient id="AW" x1="86.38" y1="201.28" x2="-16.76" y2="76.46" xlink:href="#Y"/><linearGradient id="AX" x1="103.6" y1="187.05" x2=".46" y2="62.23" xlink:href="#Y"/><linearGradient id="AY" x1="122.24" y1="171.65" x2="19.1" y2="46.83" xlink:href="#Y"/><linearGradient id="AZ" x1="118.48" y1="174.75" x2="15.34" y2="49.94" xlink:href="#Y"/><linearGradient id="Aa" x1="125.44" y1="169.01" x2="22.3" y2="44.19" xlink:href="#Y"/><linearGradient id="Ab" x1="114.72" y1="177.86" x2="11.58" y2="53.04" xlink:href="#Y"/><linearGradient id="Ac" x1="90.15" y1="198.16" x2="-12.99" y2="73.34" xlink:href="#Y"/><linearGradient id="Ad" x1="114.88" y1="177.73" x2="11.74" y2="52.91" xlink:href="#Y"/><linearGradient id="Ae" x1="117.13" y1="175.87" x2="13.99" y2="51.05" xlink:href="#Y"/><linearGradient id="Af" x1="112.62" y1="179.6" x2="9.48" y2="54.78" xlink:href="#Y"/><linearGradient id="Ag" x1="119.39" y1="174" x2="16.25" y2="49.18" xlink:href="#Y"/><linearGradient id="Ah" x1="87.89" y1="200.03" x2="-15.24" y2="75.21" xlink:href="#Y"/><linearGradient id="Ai" x1="123.91" y1="170.27" x2="20.77" y2="45.45" xlink:href="#Y"/><linearGradient id="Aj" x1="121.65" y1="172.13" x2="18.51" y2="47.32" xlink:href="#Y"/><linearGradient id="Ak" x1="110.36" y1="181.46" x2="7.22" y2="56.65" xlink:href="#Y"/><linearGradient id="Al" x1="93.07" y1="195.75" x2="-10.07" y2="70.93" xlink:href="#Y"/><linearGradient id="Am" x1="89.31" y1="198.85" x2="-13.83" y2="74.04" xlink:href="#Y"/><linearGradient id="An" x1="106.5" y1="199.96" x2="3.36" y2="75.15" xlink:href="#Y"/><linearGradient id="Ao" x1="91.46" y1="197.08" x2="-11.68" y2="72.26" xlink:href="#Y"/><linearGradient id="Ap" x1="104.35" y1="186.43" x2="1.21" y2="61.61" xlink:href="#Y"/><linearGradient id="Aq" x1="96.83" y1="192.64" x2="-6.31" y2="67.82" xlink:href="#Y"/><linearGradient id="Ar" x1="100.59" y1="189.53" x2="-2.55" y2="64.72" xlink:href="#Y"/><linearGradient id="As" x1="102.92" y1="92.35" x2="112.92" y2="104.47" xlink:href="#Co"><stop offset="0" stop-color="#b9bfea"/><stop offset=".18" stop-color="#e5e9ff"/><stop offset=".26" stop-color="#f1f3ff"/><stop offset=".34" stop-color="#e5e9ff"/><stop offset=".63" stop-color="#afb6e5"/><stop offset=".79" stop-color="#bac0ea"/><stop offset=".82" stop-color="#bdc3ec"/><stop offset="1" stop-color="#afb6e5"/></linearGradient><linearGradient id="At" x1="87.52" y1="81.31" x2="121.08" y2="137.08" xlink:href="#As"/><linearGradient id="Au" x1="45.35" y1="96.696" x2="140.093" y2="126.888" xlink:href="#Co"><stop offset="0" stop-color="#afb6e5"/><stop offset=".14" stop-color="#b6bce8"/><stop offset=".35" stop-color="#c8cdf1"/><stop offset=".58" stop-color="#e5e9ff"/><stop offset=".95" stop-color="#f5f4fc"/><stop offset="1" stop-color="#f7f6fb"/></linearGradient><radialGradient id="Av" cx="-2070.96" cy="103.5" r="18.51" gradientTransform="translate(2172.39)" xlink:href="#Co"><stop offset="0" stop-color="#fff"/><stop offset=".02" stop-color="#f7f7f7"/><stop offset=".13" stop-color="#bebebe"/><stop offset=".25" stop-color="#8b8b8b"/><stop offset=".37" stop-color="#606060"/><stop offset=".49" stop-color="#3e3e3e"/><stop offset=".62" stop-color="#232323"/><stop offset=".74" stop-color="#0f0f0f"/><stop offset=".87" stop-color="#040404"/><stop offset="1"/></radialGradient><radialGradient id="Aw" cx="123.35" cy="89.37" r="4.76" xlink:href="#Co"><stop offset="0" stop-color="#eef0fd"/><stop offset=".69" stop-color="#afb6e5"/><stop offset=".81" stop-color="#b3b9e7"/><stop offset=".92" stop-color="#bec4ec"/><stop offset="1" stop-color="#ccd1f3"/></radialGradient><radialGradient id="Ax" cx="1775.38" cy="-4547.59" r="26.55" gradientTransform="matrix(1, 0, 0, 0.45, -1676.59, 2150.17)" xlink:href="#e"/><linearGradient id="Ay" x1="65.42" y1="102.41" x2="91.55" y2="145.83" xlink:href="#As"/><linearGradient id="Az" x1="17.296" y1="119.114" x2="99.966" y2="145.468" xlink:href="#Au"/><radialGradient id="BA" cx="-2106.16" cy="125.05" r="16.15" xlink:href="#Av"/><radialGradient id="BB" cx="1300.15" cy="-4452.75" r="11.05" gradientTransform="matrix(0.92, -0.38, 0.17, 0.42, -370.12, 2474.11)" xlink:href="#e"/><linearGradient id="BC" x1="48.35" y1="127.5" x2="59.33" y2="145.75" xlink:href="#Co"><stop offset="0" stop-color="#b9bfea"/><stop offset=".22" stop-color="#e5e9ff"/><stop offset=".28" stop-color="#f1f3ff"/><stop offset=".34" stop-color="#e5e9ff"/><stop offset=".63" stop-color="#afb6e5"/><stop offset=".79" stop-color="#bac0ea"/><stop offset=".82" stop-color="#bdc3ec"/><stop offset="1" stop-color="#afb6e5"/></linearGradient><linearGradient id="BD" x1="30.014" y1="133.389" x2="64.806" y2="144.473" xlink:href="#Au"/><radialGradient id="BE" cx="-2121.79" cy="135.88" r="6.8" xlink:href="#Av"/><radialGradient id="BF" cx="1279.29" cy="-4432.56" r="5.63" gradientTransform="matrix(0.92, -0.38, 0.17, 0.42, -370.12, 2474.11)" xlink:href="#e"/><linearGradient id="BG" x1="37.14" y1="127.8" x2="183.01" y2="159.81" xlink:href="#V"/><linearGradient id="BH" x1="104.16" y1="90.54" x2="153.68" y2="189.75" xlink:href="#g"/><linearGradient id="BI" x1="148.33" y1="200.51" x2="42.39" y2="81.98" xlink:href="#Y"/><linearGradient id="BJ" x1="152.13" y1="197.11" x2="46.19" y2="78.58" xlink:href="#Y"/><linearGradient id="BK" x1="150.29" y1="198.76" x2="44.35" y2="80.23" xlink:href="#Y"/><linearGradient id="BL" x1="155.93" y1="193.71" x2="50" y2="75.18" xlink:href="#Y"/><linearGradient id="BM" x1="161.7" y1="188.55" x2="55.76" y2="70.03" xlink:href="#Y"/><linearGradient id="BN" x1="163.66" y1="186.8" x2="57.72" y2="68.28" xlink:href="#Y"/><linearGradient id="BO" x1="157.89" y1="191.95" x2="51.96" y2="73.43" xlink:href="#Y"/><linearGradient id="BP" x1="146.48" y1="202.16" x2="40.54" y2="83.63" xlink:href="#Co"><stop offset="0" stop-color="#f03d53"/><stop offset=".15" stop-color="#bb6df3"/><stop offset=".46" stop-color="#836df3"/><stop offset=".72" stop-color="#5277f7"/><stop offset="1" stop-color="#6cf"/></linearGradient><linearGradient id="BQ" x1="94.36" y1="161.74" x2="-11.58" y2="43.22" xlink:href="#Y"/><linearGradient id="BR" x1="69.7" y1="145.75" x2="-36.23" y2="27.22" xlink:href="#Y"/><linearGradient id="BS" x1="80.77" y1="154.19" x2="-25.17" y2="35.66" xlink:href="#Y"/><linearGradient id="BT" x1="82.26" y1="140.55" x2="-23.67" y2="22.03" xlink:href="#Y"/><linearGradient id="BU" x1="77.31" y1="146.61" x2="-28.62" y2="28.08" xlink:href="#Y"/><linearGradient id="BV" x1="76.5" y1="153.35" x2="-29.44" y2="34.83" xlink:href="#Y"/><linearGradient id="BW" x1="71.2" y1="147.42" x2="-34.74" y2="28.9" xlink:href="#Y"/><linearGradient id="BX" x1="89.06" y1="155.81" x2="-16.88" y2="37.29" xlink:href="#Y"/><linearGradient id="BY" x1="158.01" y1="191.85" x2="52.07" y2="73.33" xlink:href="#Y"/><linearGradient id="BZ" x1="159.85" y1="190.2" x2="53.92" y2="71.68" xlink:href="#Y"/><linearGradient id="Ba" x1="95.17" y1="162.65" x2="-10.76" y2="44.13" xlink:href="#Y"/><linearGradient id="Bb" x1="161.81" y1="188.45" x2="55.88" y2="69.93" xlink:href="#Y"/><linearGradient id="Bc" x1="156.05" y1="193.6" x2="50.11" y2="75.08" xlink:href="#Y"/><linearGradient id="Bd" x1="154.09" y1="195.35" x2="48.15" y2="76.83" xlink:href="#Y"/><linearGradient id="Be" x1="54.59" y1="133.26" x2="-51.34" y2="14.74" xlink:href="#Y"/><linearGradient id="Bf" x1="80.3" y1="157.61" x2="-25.63" y2="39.09" xlink:href="#Y"/><linearGradient id="Bg" x1="93.68" y1="153.32" x2="-12.26" y2="34.79" xlink:href="#Y"/><linearGradient id="Bh" x1="153.06" y1="174.94" x2="47.12" y2="56.42" xlink:href="#Y"/><linearGradient id="Bi" x1="82.61" y1="152.54" x2="-23.32" y2="34.01" xlink:href="#Y"/><linearGradient id="Bj" x1="91.37" y1="166.05" x2="-14.57" y2="47.53" xlink:href="#Y"/><linearGradient id="Bk" x1="158.36" y1="180.87" x2="52.42" y2="62.35" xlink:href="#Y"/><linearGradient id="Bl" x1="78.81" y1="155.94" x2="-27.13" y2="37.41" xlink:href="#Y"/><linearGradient id="Bm" x1="85.6" y1="163.54" x2="-20.33" y2="45.02" xlink:href="#Y"/><linearGradient id="Bn" x1="146.78" y1="201.89" x2="40.84" y2="83.37" xlink:href="#Y"/><linearGradient id="Bo" x1="65.9" y1="133.84" x2="-40.04" y2="15.31" xlink:href="#Y"/><linearGradient id="Bp" x1="88.38" y1="147.39" x2="-17.56" y2="28.86" xlink:href="#Y"/><linearGradient id="Bq" x1="152.64" y1="196.65" x2="46.71" y2="78.13" xlink:href="#Y"/><linearGradient id="Br" x1="161.96" y1="188.32" x2="56.02" y2="69.8" xlink:href="#Y"/><linearGradient id="Bs" x1="144.82" y1="203.64" x2="38.89" y2="85.11" xlink:href="#Y"/><linearGradient id="Bt" x1="148.73" y1="200.14" x2="42.8" y2="81.62" xlink:href="#Y"/><linearGradient id="Bu" x1="150.69" y1="198.4" x2="44.75" y2="79.87" xlink:href="#Y"/><linearGradient id="Bv" x1="158.15" y1="191.72" x2="52.22" y2="73.2" xlink:href="#Y"/><linearGradient id="Bw" x1="161.79" y1="188.47" x2="55.85" y2="69.95" xlink:href="#Y"/><linearGradient id="Bx" x1="139.62" y1="208.28" x2="33.69" y2="89.76" xlink:href="#Y"/><linearGradient id="By" x1="154.51" y1="194.98" x2="48.58" y2="76.45" xlink:href="#Y"/><linearGradient id="Bz" x1="173.37" y1="178.12" x2="67.44" y2="59.6" xlink:href="#Y"/><linearGradient id="CA" x1="169.57" y1="181.52" x2="63.63" y2="63" xlink:href="#Y"/><linearGradient id="CB" x1="176.68" y1="175.16" x2="70.74" y2="56.64" xlink:href="#Y"/><linearGradient id="CC" x1="165.76" y1="184.92" x2="59.83" y2="66.4" xlink:href="#Y"/><linearGradient id="CD" x1="142.87" y1="205.38" x2="36.93" y2="86.86" xlink:href="#Y"/><linearGradient id="CE" x1="167.56" y1="183.32" x2="61.62" y2="64.79" xlink:href="#Y"/><linearGradient id="CF" x1="169.51" y1="181.57" x2="63.57" y2="63.05" xlink:href="#Y"/><linearGradient id="CG" x1="165.6" y1="185.07" x2="59.66" y2="66.54" xlink:href="#Y"/><linearGradient id="CH" x1="171.47" y1="179.82" x2="65.53" y2="61.3" xlink:href="#Y"/><linearGradient id="CI" x1="140.91" y1="207.13" x2="34.98" y2="88.61" xlink:href="#Y"/><linearGradient id="CJ" x1="175.37" y1="176.33" x2="69.44" y2="57.81" xlink:href="#Y"/><linearGradient id="CK" x1="173.42" y1="178.08" x2="67.48" y2="59.55" xlink:href="#Y"/><linearGradient id="CL" x1="163.65" y1="186.81" x2="57.71" y2="68.29" xlink:href="#Y"/><linearGradient id="CM" x1="146.47" y1="202.17" x2="40.53" y2="83.65" xlink:href="#Y"/><linearGradient id="CN" x1="142.66" y1="205.57" x2="36.73" y2="87.05" xlink:href="#Y"/><linearGradient id="CO" x1="159.74" y1="190.31" x2="53.8" y2="71.78" xlink:href="#Y"/><linearGradient id="CP" x1="68.66" y1="152.71" x2="-37.28" y2="34.18" xlink:href="#Y"/><linearGradient id="CQ" x1="157.88" y1="191.97" x2="51.94" y2="73.45" xlink:href="#Y"/><linearGradient id="CR" x1="150.27" y1="198.77" x2="44.33" y2="80.25" xlink:href="#Y"/><linearGradient id="CS" x1="154.07" y1="195.37" x2="48.14" y2="76.85" xlink:href="#Y"/><radialGradient id="CT" cx="1776.92" cy="112.39" r="23.27" gradientTransform="translate(-1677.58)" xlink:href="#Co"><stop offset="0" stop-color="#5277f7"/><stop offset="0" stop-color="#5277f6"/><stop offset=".12" stop-color="#3f5bbd"/><stop offset=".24" stop-color="#2e438b"/><stop offset=".36" stop-color="#202e60"/><stop offset=".49" stop-color="#141e3e"/><stop offset=".61" stop-color="#0b1123"/><stop offset=".74" stop-color="#05070f"/><stop offset=".87" stop-color="#010204"/><stop offset="1"/></radialGradient><radialGradient id="CU" cy="135.39" xlink:href="#CT"/><radialGradient id="CV" cx="1798.96" cy="125.14" xlink:href="#CT"/><radialGradient id="CW" cx="1798.96" cy="148.14" xlink:href="#CT"/><radialGradient id="CX" cx="1820.63" cy="137.8" xlink:href="#CT"/><radialGradient id="CY" cx="1820.63" cy="160.8" xlink:href="#CT"/><radialGradient id="CZ" cx="1693.92" cy="64.64" xlink:href="#CT"/><radialGradient id="Ca" cx="1693.92" cy="87.64" xlink:href="#CT"/><radialGradient id="Cb" cx="1715.96" cy="77.39" xlink:href="#CT"/><radialGradient id="Cc" cx="1715.96" cy="100.39" xlink:href="#CT"/><radialGradient id="Cd" cx="1737.63" cy="90.05" xlink:href="#CT"/><radialGradient id="Ce" cx="1737.63" cy="113.05" xlink:href="#CT"/><path id="Cf" d="M15.3 90.98v-6.99l-6.68-3.85v6.99l6.68 3.85z"/><path id="Cg" d="M22.57 95.83l-6.69-3.85v6.99l6.69 3.85v-6.99z"/><path id="Ch" d="M29.83 107.66l-6.69-3.85v7l6.69 3.84v-6.99z"/><path id="Ci" d="M58.87 116.72l-6.68-3.84v6.99l6.68 3.85v-7z"/><path id="Cj" d="M52.19 105.22v6.99l6.68 3.85v-6.99l-6.68-3.85z"/><path id="Ck" d="M44.93 108.7v6.99l6.68 3.85v-7l-6.68-3.84z"/><path id="Cl" d="M51.61 120.2l-6.68-3.85v6.99l6.68 3.85v-6.99z"/><path id="Cm" d="M52.19 120.53v7l6.68 3.84v-6.99l-6.68-3.85z"/><path id="Cn" d="M106.27 127.9l6.68 3.85v-6.99l-6.68-3.85v6.99z"/><linearGradient id="Co" gradientUnits="userSpaceOnUse"/></defs><g class="A"><g><g><path d="M292.68 296.13L275.23 286l-73.42 41.64-6.19-3.3 79.61-45.25 17.5 10.15 35.55-19.94 2.91 5.26-38.51 21.57z" fill="#fad264"/><g opacity=".2"><path d="M247.21,350a20.8,20.8,0,0,1-10.39-2.5L184,316.27l-52.85-31.19c-3.78-2.18-6-5.64-6-9.49,0-4.21,2.61-8.14,7.17-10.77l43.52-29.59A25.54,25.54,0,0,1,188.47,232a20.84,20.84,0,0,1,10.38,2.5l58.35,32.77,58.35,32.76c3.79,2.19,6,5.65,6,9.49,0,4.22-2.62,8.14-7.18,10.78l-54.51,26.42A25.54,25.54,0,0,1,247.21,350Z" opacity="0" class="EH"/><path d="M132.46 265.16l11.27-7.58c.23-.14 21.75-14.55 22-14.43l9.7-6.21a25.72 25.72 0 0 1 12.36-2.85 21 21 0 0 1 10.18 2.55l44.57 25 12.77 7.18 57.34 32.21a12.84 12.84 0 0 1 4.33 4 9.83 9.83 0 0 1 1.63 5.27c0 4.12-2.51 8-7 10.59l-12.08 5.86c-.24.14-23.28 11.15-23.48 11L257.91 346a25.6 25.6 0 0 1-12.36 2.85 21 21 0 0 1-10.18-2.55l-35.92-21.17-16.06-9.46-52-30.63a12.82 12.82 0 0 1-4.49-4.23 9.83 9.83 0 0 1-1.48-5c-.02-4.17 2.58-8.04 7.04-10.65z" fill="#abb2e2" opacity=".05"/><path d="M132.58 265.51l11.1-7.4c.47-.27 21.28-14 21.68-13.74l9.55-5.71c3.24-1.87 8-2.5 12.11-2.5a21.25 21.25 0 0 1 10 2.59l43.78 24.6 12.55 7.06 56.33 31.66a13.3 13.3 0 0 1 4.28 3.87 9.64 9.64 0 0 1 1.67 5.14c.1 4-2.39 7.84-6.84 10.41l-11.88 5.76c-.46.27-22.72 10.75-23.12 10.52L256 345.22c-3.24 1.87-8 2.49-12.12 2.49a21.25 21.25 0 0 1-10-2.59l-35.28-20.79-15.78-9.33-51.11-30a13.28 13.28 0 0 1-4.44-4.11 9.68 9.68 0 0 1-1.53-4.91c-.1-4.08 2.38-7.89 6.84-10.47z" fill="#a7addf" opacity=".1"/><path d="M132.7 265.86l10.94-7.22c.7-.4 20.8-13.4 21.41-13l9.39-5.21c3.07-1.77 8-2.15 11.86-2.15a21.53 21.53 0 0 1 9.76 2.63l43 24.18 12.32 6.91 55.33 31.1a13.74 13.74 0 0 1 4.22 3.78 9.43 9.43 0 0 1 1.72 5c.15 3.94-2.28 7.69-6.68 10.23l-11.67 5.66c-.7.4-22.17 10.35-22.78 10l-17.41 6.71c-3.07 1.77-8 2.15-11.87 2.15a21.58 21.58 0 0 1-9.77-2.64l-34.71-20.41-15.52-9.13L132 284.88a13.62 13.62 0 0 1-4.39-4 9.54 9.54 0 0 1-1.58-4.77c-.16-3.95 2.27-7.71 6.67-10.25z" fill="#a3a9dc" opacity=".14"/><path d="M132.82 266.21l10.77-7c.93-.53 20.33-12.83 21.14-12.36l9.27-4.75c2.9-1.67 7.92-1.8 11.6-1.8a21.78 21.78 0 0 1 9.56 2.68l42.21 23.74 12.1 6.81 54.32 30.55a14.41 14.41 0 0 1 4.18 3.67 9.37 9.37 0 0 1 1.76 4.87c.19 3.84-2.17 7.54-6.52 10.05l-11.46 5.56c-.93.54-21.62 9.94-22.43 9.48l-17.09 6c-2.9 1.67-7.93 1.79-11.62 1.79a21.83 21.83 0 0 1-9.56-2.69l-34.11-20-15.25-8.95-49.37-29a14.31 14.31 0 0 1-4.34-3.9 9.44 9.44 0 0 1-1.63-4.64c-.23-3.89 2.12-7.6 6.47-10.11z" fill="#9fa4d8" opacity=".19"/><path d="M132.94 266.56l10.61-6.85c1.16-.67 19.85-12.26 20.86-11.68l9.09-4.21c2.73-1.58 7.88-1.45 11.35-1.45a22.14 22.14 0 0 1 9.34 2.72l41.43 23.31 11.88 6.69 53.31 30a15.06 15.06 0 0 1 4.13 3.57 9.17 9.17 0 0 1 1.8 4.73c.24 3.75-2.05 7.38-6.34 9.86l-11.26 5.47c-1.16.67-21.07 9.54-22.08 9l-16.76 5.24c-2.73 1.58-7.91 1.44-11.37 1.44a22.23 22.23 0 0 1-9.36-2.73L196.06 322l-15-8.78-48.5-28.45a15.12 15.12 0 0 1-4.3-3.78 9.35 9.35 0 0 1-1.67-4.52c-.24-3.78 2.05-7.47 6.35-9.91z" fill="#9ba0d5" opacity=".24"/><path d="M133.06 266.91l10.45-6.67c1.39-.8 19.38-11.69 20.58-11l8.94-3.71c2.55-1.48 7.84-1.1 11.1-1.1 2.82 0 7.11 1.59 9.13 2.76l40.64 22.89 11.66 6.56 52.3 29.45a15.81 15.81 0 0 1 4.08 3.46 9.16 9.16 0 0 1 1.85 4.59c.28 3.67-1.94 7.24-6.18 9.69l-11.05 5.37c-1.4.8-20.53 9.14-21.73 8.44l-16.43 4.51c-2.56 1.47-7.88 1.08-11.13 1.08-2.83 0-7.12-1.6-9.15-2.77l-32.9-19.27-14.71-8.62-47.64-27.9a15.77 15.77 0 0 1-4.25-3.67 9.21 9.21 0 0 1-1.72-4.39c-.31-3.61 1.91-7.25 6.16-9.7z" fill="#979bd2" opacity=".29"/><path d="M133.19 267.25l10.27-6.48c1.63-.94 18.91-11.11 20.32-10.3l8.77-3.21c2.39-1.38 7.82-.75 10.85-.75 2.64 0 7 1.72 8.93 2.81l39.86 22.45 11.43 6.44 51.29 28.9a16.53 16.53 0 0 1 4 3.35 9 9 0 0 1 1.9 4.46c.33 3.57-1.83 7.09-6 9.51L284 329.7c-1.63.94-20 8.74-21.39 7.92l-16.1 3.77c-2.38 1.38-7.84.73-10.88.73-2.63 0-7.05-1.72-8.94-2.82l-32.3-18.89-14.46-8.41-46.76-27.35a16.65 16.65 0 0 1-4.21-3.57 9.17 9.17 0 0 1-1.78-4.26c-.35-3.6 1.82-7.14 6.01-9.57z" fill="#9397cf" opacity=".33"/><path d="M133.31 267.6l10.11-6.29c1.86-1.08 18.43-10.55 20-9.62l8.62-2.71c2.22-1.28 7.78-.4 10.6-.4 2.45 0 7 1.84 8.72 2.85l39.07 22 11.21 6.32L292 308.11a18.05 18.05 0 0 1 4 3.26 8.86 8.86 0 0 1 1.93 4.32c.38 3.48-1.71 6.94-5.85 9.33l-10.64 5.17c-1.86 1.07-19.42 8.34-21 7.41l-15.77 3c-2.22 1.28-7.81.37-10.63.37-2.45 0-7-1.84-8.74-2.86l-31.7-18.51-14.17-8.28-45.89-26.8a17.83 17.83 0 0 1-4.16-3.45 9.08 9.08 0 0 1-1.83-4.14c-.48-3.45 1.6-6.93 5.76-9.33z" fill="#8f92cc" opacity=".38"/><path d="M133.43 268l9.94-6.11c2.09-1.21 18-10 19.77-8.93l8.47-2.22c2-1.18 7.74 0 10.35 0 2.26 0 6.89 2 8.51 2.89l38.28 21.6 11 6.19 49.25 27.7a18.93 18.93 0 0 1 3.94 3.15 8.89 8.89 0 0 1 2 4.19c.42 3.39-1.61 6.79-5.68 9.14l-10.44 5.07c-2.09 1.21-18.87 7.94-20.68 6.9l-15.44 2.29c-2.05 1.18-7.79 0-10.39 0-2.26 0-6.91-2-8.53-2.91l-31.09-18.14-13.91-8.1-45-26.26a18.56 18.56 0 0 1-4.11-3.34 9 9 0 0 1-1.88-4c-.49-3.37 1.54-6.79 5.64-9.11z" fill="#8b8ec9" opacity=".43"/><path d="M133.55 268.3l9.78-5.93c2.32-1.34 17.48-9.4 19.49-8.24l8.32-1.72c1.88-1.08 7.71.31 10.09.31 2.08 0 6.82 2.08 8.3 2.94L227 276.82l10.76 6.07 48.27 27.24a20.28 20.28 0 0 1 3.88 3.05 8.69 8.69 0 0 1 2 4.05c.47 3.29-1.5 6.64-5.52 9l-10.23 5c-2.32 1.35-18.32 7.54-20.34 6.38l-15.11 1.56c-1.87 1.08-7.75-.33-10.13-.33-2.08 0-6.84-2.1-8.33-3l-30.49-17.75-13.63-7.94L134 284.42a20.72 20.72 0 0 1-4.07-3.24 9 9 0 0 1-1.92-3.87c-.47-3.31 1.49-6.67 5.54-9.01z" fill="#8789c6" opacity=".48"/><path d="M133.67 268.65l9.61-5.74c2.56-1.48 17-8.84 19.23-7.56l8.16-1.22c1.7-1 7.67.66 9.84.66 1.88 0 6.74 2.2 8.09 3l36.72 20.73 10.53 5.95 47.27 26.69a21.67 21.67 0 0 1 3.83 2.94A8.77 8.77 0 0 1 289 318c.51 3.2-1.39 6.48-5.36 8.78l-10 4.87c-2.56 1.48-17.77 7.14-20 5.86l-14.78.82c-1.7 1-7.72-.68-9.89-.68-1.88 0-6.77-2.22-8.12-3L191 317.28l-13.36-7.77-43.29-25.16a22 22 0 0 1-4-3.13 8.82 8.82 0 0 1-2-3.74c-.57-3.21 1.32-6.48 5.32-8.83z" fill="#8385c2" opacity=".52"/><path d="M133.79 269l9.45-5.56c2.79-1.61 16.53-8.26 18.95-6.87l8-.72c1.53-.88 7.63 1 9.59 1 1.69 0 6.66 2.32 7.88 3l35.94 20.3 10.3 5.82 46.26 26.14A24.65 24.65 0 0 1 284 315a8.66 8.66 0 0 1 2.11 3.78c.57 3.11-1.27 6.33-5.19 8.59l-9.81 4.78c-2.79 1.61-17.22 6.74-19.64 5.34l-14.45.09c-1.54.88-7.7-1-9.65-1-1.69 0-6.69-2.34-7.91-3l-29.29-17L177 308.9l-42.41-24.62a24.71 24.71 0 0 1-4-3 9 9 0 0 1-2-3.62c-.59-3.13 1.25-6.39 5.2-8.66z" fill="#7f80bf" opacity=".57"/><path d="M133.91 269.34l9.28-5.37c3-1.74 16.06-7.69 18.68-6.18l7.85-.22c1.37-.79 7.61 1.36 9.34 1.36 1.51 0 6.6 2.44 7.68 3.07l35.15 19.87 10.08 5.7 45.25 25.58a28.4 28.4 0 0 1 3.74 2.74 8.6 8.6 0 0 1 2.16 3.65c.61 3-1.16 6.18-5 8.41l-9.61 4.68c-3 1.74-16.68 6.33-19.29 4.82l-14.13-.65c-1.36.79-7.66-1.39-9.39-1.39-1.51 0-6.63-2.46-7.71-3.08l-28.68-16.62-12.83-7.43-41.54-24.06a27.8 27.8 0 0 1-3.93-2.91 8.73 8.73 0 0 1-2.07-3.49c-.69-3.03 1.06-6.23 4.97-8.48z" fill="#7b7cbc" opacity=".62"/><path d="M134 269.69l9.12-5.18c3.25-1.88 15.59-7.13 18.41-5.5l7.69.28c1.2-.69 7.57 1.71 9.09 1.71 1.32 0 6.52 2.57 7.47 3.11l34.36 19.44 9.86 5.58 44.24 25a30.4 30.4 0 0 1 3.69 2.63 8.79 8.79 0 0 1 2.21 3.52c.66 2.92-1.05 6-4.86 8.23l-9.41 4.58c-3.25 1.88-16.12 5.93-18.94 4.3L233.17 336c-1.19.69-7.63-1.75-9.15-1.75-1.32 0-6.55-2.58-7.5-3.13l-28.08-16.23-12.55-7.26-40.68-23.52a31.08 31.08 0 0 1-3.88-2.8 8.8 8.8 0 0 1-2.13-3.31c-.72-2.95.98-6.09 4.8-8.31z" fill="#7777b9" opacity=".67"/><path d="M134.15 270l8.95-5c3.49-2 15.12-6.55 18.14-4.81l7.54.78c1-.59 7.53 2.06 8.83 2.06 1.14 0 6.45 2.69 7.26 3.16l33.59 19 9.63 5.45 43.23 24.48a34.4 34.4 0 0 1 3.68 2.58 8.71 8.71 0 0 1 2.25 3.37c.72 2.84-.93 5.89-4.69 8.06l-9.2 4.48c-3.48 2-15.57 5.53-18.59 3.79l-13.46-2.12c-1 .59-7.6-2.1-8.9-2.1-1.14 0-6.49-2.71-7.3-3.18l-27.48-15.86-12.28-7.09-39.81-23a36.77 36.77 0 0 1-3.84-2.68 9.15 9.15 0 0 1-2.17-3.23c-.81-2.82.82-5.91 4.62-8.14z" fill="#7373b6" opacity=".71"/><path d="M134.27 270.39l8.79-4.82c3.72-2.15 14.64-6 17.86-4.12l7.39 1.28c.85-.5 7.5 2.41 8.58 2.41s6.38 2.81 7.05 3.2l32.8 18.58 9.41 5.33 42.22 23.93c.45.26 3.29 2.09 3.6 2.42a8.85 8.85 0 0 1 2.29 3.24c.76 2.74-.82 5.73-4.53 7.87l-9 4.39c-3.72 2.14-15 5.13-18.24 3.27l-13.14-2.86c-.85.49-7.57-2.45-8.65-2.45s-6.41-2.83-7.09-3.22l-26.87-15.48-12-6.92L135.79 284a28.62 28.62 0 0 1-3.79-2.58 6.31 6.31 0 0 1-2.22-3.1c-.78-2.74.75-5.77 4.49-7.93z" fill="#6f6eb3" opacity=".76"/><path d="M134.39 270.74l8.62-4.63c4-2.29 14.17-5.41 17.59-3.44l7.24 1.78c.68-.4 7.46 2.76 8.33 2.76s6.3 2.93 6.84 3.24l32 18.15 9.19 5.21 41.22 23.38a33.26 33.26 0 0 1 3.54 2.32 6.14 6.14 0 0 1 2.34 3.1c.81 2.65-.71 5.58-4.37 7.69l-8.78 4.29c-4 2.28-14.47 4.73-17.89 2.75l-12.81-3.59c-.68.39-7.54-2.81-8.41-2.81s-6.34-3-6.88-3.27l-26.26-15.09-11.75-6.75L136.09 284a34.25 34.25 0 0 1-3.75-2.47 6.13 6.13 0 0 1-2.27-3c-.88-2.69.63-5.66 4.32-7.79z" fill="#6b6ab0" opacity=".81"/><path d="M134.51 271.09l8.46-4.45c4.18-2.42 13.69-4.84 17.32-2.75l7.08 2.27c.51-.29 7.42 3.12 8.07 3.12s6.23 3.05 6.64 3.29l31.23 17.72 9 5.09 40.21 22.81c.27.16 3.35 2 3.49 2.22a6 6 0 0 1 2.38 3c.87 2.56-.6 5.43-4.19 7.51l-8.58 4.18c-4.19 2.42-13.92 4.33-17.55 2.24L225.56 333c-.51.3-7.51-3.16-8.16-3.16s-6.27-3.08-6.68-3.31l-25.67-14.72-11.47-6.58-37.2-21.33a43.3 43.3 0 0 1-3.7-2.35 6.06 6.06 0 0 1-2.32-2.85c-.94-2.59.51-5.51 4.15-7.61z" fill="#6765ac" opacity=".86"/><path d="M134.63 271.43l8.29-4.26c4.42-2.55 13.22-4.27 17.05-2.06l6.93 2.77c.34-.19 7.39 3.47 7.82 3.47s6.16 3.17 6.43 3.33L211.59 292l8.74 5 39.2 22.26 3.44 2.11a5.93 5.93 0 0 1 2.43 2.84c.92 2.46-.49 5.28-4 7.32l-8.4 4.03c-4.42 2.55-13.37 3.93-17.2 1.72l-12.15-5.06c-.34.19-7.47-3.52-7.91-3.52s-6.2-3.2-6.47-3.35L184.21 311 173 304.6l-36.33-20.78c-.19-.11-3.56-2.09-3.66-2.25a6 6 0 0 1-2.36-2.72c-1-2.48.35-5.34 3.98-7.42z" fill="#6361a9" opacity=".9"/><path d="M134.75 271.78l8.13-4.08c4.65-2.68 12.74-3.69 16.77-1.37l6.77 3.27c.17-.1 7.36 3.82 7.58 3.82s6.08 3.3 6.21 3.37l29.66 16.87 8.52 4.84 38.19 21.71c.09.05 3.35 1.93 3.4 2a5.88 5.88 0 0 1 2.47 2.7c1 2.37-.38 5.13-3.87 7.14l-8.17 4c-4.65 2.69-12.81 3.53-16.84 1.2l-11.82-5.8c-.17.1-7.45-3.87-7.66-3.87s-6.13-3.32-6.27-3.4l-24.46-14-10.94-6.18L137 283.75c-.09-.05-3.56-2.06-3.61-2.14a5.92 5.92 0 0 1-2.42-2.59c-1.09-2.39.24-5.19 3.78-7.24z" fill="#5f5ca6" opacity=".95"/><path d="M231.33 337.22l-48.82-27.78-48.82-27.78c-4.23-2.45-3.7-6.71 1.18-9.53l8-3.89c4.88-2.82 12.27-3.13 16.49-.69l48.83 27.79L257 323.12c4.23 2.44 3.7 6.71-1.19 9.53l-8 3.89c-4.81 2.82-12.25 3.13-16.48.68z" fill="#5b58a3"/></g><path d="M235.57 330.86l-86.29-49.81c-9.74-5.62-17.63-20.7-17.63-33.68V17.58c0-6.6-5.42-8.06-2.13-10.43.12-.09 13.16-5.94 13.31-6 3.53-1.36 7.32-2 11.91.69L241 51.67c9.73 5.62 17.62 20.69 17.62 33.67v229.8c0 6.89-2.22 11.81-5.77 14.06-.21.13-14.81 6.88-15 7-3.16 1 1.97-2.88-2.28-5.34z" class="EH"/><path d="M235.57 330.86l-86.29-49.81c-9.74-5.62-17.63-20.7-17.63-33.68V17.58c0-6.6-5.42-8.06-2.13-10.43.12-.09 12.95-5.86 13.09-5.91 3.54-1.36 7.32-2 11.92.69l86.29 49.82c9.73 5.62 17.62 20.69 17.62 33.67v229.8c0 6.89-2.23 11.81-5.77 14.06-.21.13-14.6 6.8-14.83 6.88-3.15 1.04 1.98-2.84-2.27-5.3z" fill="url(#A)"/><path d="M235.57 330.86l-86.29-49.81c-9.74-5.62-17.63-20.7-17.63-33.68V17.58c0-6.6-5.42-8.06-2.13-10.43.12-.09 12.74-5.78 12.88-5.84 3.54-1.35 7.32-1.95 11.92.7l86.28 49.82c9.74 5.62 17.63 20.69 17.63 33.67v229.79c0 6.9-2.23 11.82-5.78 14.07-.21.13-14.38 6.72-14.61 6.8-3.15 1.04 1.98-2.84-2.27-5.3z" fill="url(#B)"/><path d="M235.57 330.86l-86.29-49.81c-9.74-5.62-17.63-20.7-17.63-33.68V17.58c0-6.6-5.42-8.06-2.13-10.43.12-.09 12.52-5.7 12.67-5.76 3.53-1.35 7.32-2 11.91.7l86.29 49.81C250.13 57.52 258 72.6 258 85.58v229.79c0 6.9-2.23 11.81-5.78 14.06-.21.14-14.17 6.65-14.4 6.73-3.13 1.04 2-2.84-2.25-5.3z" fill="url(#C)"/><path d="M235.57 330.86l-86.29-49.81c-9.74-5.62-17.63-20.7-17.63-33.68V17.58c0-6.6-5.42-8.06-2.13-10.43.12-.09 12.31-5.62 12.46-5.68 3.53-1.35 7.32-2 11.91.7L240.18 52c9.73 5.62 17.62 20.7 17.62 33.68v229.77c0 6.9-2.22 11.81-5.77 14.06-.21.14-14 6.57-14.19 6.65-3.15 1.04 1.98-2.84-2.27-5.3z" fill="url(#D)"/><path d="M235.57 330.86l-86.29-49.81c-9.74-5.62-17.63-20.7-17.63-33.68V17.58c0-6.6-5.42-8.06-2.13-10.43.12-.09 12.1-5.54 12.24-5.6 3.54-1.35 7.32-2 11.92.69L240 52.06c9.73 5.62 17.62 20.7 17.62 33.68v229.79c0 6.9-2.23 11.81-5.78 14.06-.21.14-13.74 6.49-14 6.57-3.15 1.04 1.98-2.84-2.27-5.3z" fill="url(#E)"/><path d="M235.57 330.86l-86.29-49.81c-9.74-5.62-17.63-20.7-17.63-33.68V17.58c0-6.6-5.42-8.06-2.13-10.43.12-.09 11.89-5.47 12-5.52 3.54-1.36 7.32-2 11.92.69l86.28 49.82c9.74 5.62 17.63 20.7 17.63 33.67v229.8c0 6.9-2.23 11.81-5.78 14.06-.21.13-13.53 6.41-13.76 6.49-3.12 1.04 2.01-2.84-2.24-5.3z" fill="url(#F)"/><path d="M235.57 330.86l-86.29-49.81c-9.74-5.62-17.63-20.7-17.63-33.68V17.58c0-6.6-5.42-8.06-2.13-10.43.12-.09 11.67-5.39 11.82-5.44 3.53-1.36 7.32-2 11.91.69l86.29 49.82c9.73 5.62 17.62 20.7 17.62 33.67v229.8c0 6.89-2.22 11.81-5.77 14.06-.21.13-13.32 6.33-13.55 6.41-3.15 1.04 1.98-2.84-2.27-5.3z" fill="url(#G)"/><path d="M235.57 330.86l-86.29-49.81c-9.74-5.62-17.63-20.7-17.63-33.68V17.58c0-6.6-5.42-8.06-2.13-10.43.12-.09 11.46-5.31 11.6-5.36 3.54-1.36 7.33-2 11.92.69l86.29 49.82C249.06 57.92 257 73 257 86v229.8c0 6.89-2.23 11.81-5.77 14.06-.21.13-13.11 6.25-13.34 6.33-3.2 1.01 1.93-2.87-2.32-5.33z" fill="url(#H)"/><path d="M235.57 330.86l-86.29-49.81c-9.74-5.62-17.63-20.7-17.63-33.68V17.58c0-6.6-5.42-8.06-2.13-10.43.12-.09 11.25-5.23 11.39-5.28 3.54-1.36 7.32-2 11.92.69l86.29 49.82c9.73 5.62 17.62 20.69 17.62 33.67v229.8c0 6.89-2.23 11.81-5.78 14.06-.21.13-12.89 6.17-13.12 6.25-3.15 1.04 1.98-2.84-2.27-5.3z" fill="url(#I)"/><path d="M235.57 330.86l-86.29-49.81c-9.74-5.62-17.63-20.7-17.63-33.68V17.58c0-6.6-5.42-8.06-2.13-10.43.12-.09 11-5.15 11.18-5.21 3.54-1.35 7.3-1.94 11.92.7l86.28 49.82c9.74 5.62 17.63 20.69 17.63 33.67v229.79c0 6.9-2.23 11.82-5.78 14.07-.21.13-12.68 6.09-12.91 6.17-3.15 1.04 1.98-2.84-2.27-5.3z" fill="url(#J)"/><path d="M235.57 330.86l-86.29-49.81c-9.74-5.62-17.63-20.7-17.63-33.68V17.58c0-6.6-5.42-8.06-2.13-10.43.12-.09 10.82-5.07 11-5.13 3.53-1.35 7.32-2 11.91.7l86.29 49.82c9.73 5.62 17.62 20.69 17.62 33.67V316c0 6.9-2.22 11.82-5.77 14.07-.21.13-12.47 6-12.7 6.09-3.18 1.04 1.95-2.84-2.3-5.3z" fill="url(#K)"/><path d="M235.57 330.86l-86.29-49.81c-9.74-5.62-17.63-20.7-17.63-33.68V17.58c0-6.6-5.42-8.06-2.13-10.43.12-.09 10.61-5 10.75-5.05 3.54-1.35 7.33-2 11.92.7l86.29 49.81c9.73 5.62 17.62 20.7 17.62 33.68v229.79c0 6.9-2.23 11.81-5.77 14.06-.21.14-12.26 5.94-12.49 6-3.15 1.06 1.98-2.82-2.27-5.28z" fill="url(#L)"/><path d="M235.57 330.86l-86.29-49.81c-9.74-5.62-17.63-20.7-17.63-33.68V17.58c0-6.6-5.42-8.06-2.13-10.43.12-.09 10.4-4.91 10.54-5 3.54-1.35 7.32-2 11.92.7l86.28 49.81c9.74 5.62 17.63 20.7 17.63 33.68v229.82c0 6.9-2.23 11.81-5.78 14.06-.21.14-12 5.86-12.27 5.94-3.15 1.04 1.98-2.84-2.27-5.3z" fill="url(#M)"/><path d="M235.57 330.86l-86.29-49.81c-9.74-5.62-17.63-20.7-17.63-33.68V17.58c0-6.6-5.42-8.06-2.13-10.43.12-.09 10.19-4.84 10.33-4.89 3.54-1.36 7.32-2 11.91.69l86.29 49.82c9.74 5.62 17.63 20.7 17.63 33.68v229.79c0 6.9-2.23 11.81-5.78 14.06-.21.13-11.83 5.78-12.06 5.86-3.15 1.04 1.98-2.84-2.27-5.3z" fill="url(#N)"/><path d="M235.57 330.86l-86.29-49.81c-9.74-5.62-17.63-20.7-17.63-33.68V17.58c0-6.6-5.42-8.06-2.13-10.43.12-.09 10-4.76 10.12-4.81C143.17 1 147 .38 151.55 3l86.29 49.82c9.73 5.62 17.62 20.7 17.62 33.67v229.8c0 6.89-2.22 11.81-5.77 14.06-.21.13-11.62 5.7-11.85 5.78-3.15 1.07 1.98-2.81-2.27-5.27z" fill="url(#O)"/><path d="M235.57 330.86l-86.29-49.81c-9.74-5.62-17.63-20.7-17.63-33.68V17.58c0-6.6-5.42-8.06-2.13-10.43.12-.09 9.76-4.68 9.9-4.73 3.54-1.36 7.32-2 11.92.69l86.29 49.82c9.73 5.62 17.62 20.7 17.62 33.67v229.8c0 6.89-2.23 11.81-5.78 14.06-.21.13-11.4 5.62-11.63 5.7-3.15 1.04 1.98-2.84-2.27-5.3z" fill="url(#P)"/><path d="M235.57 330.86l-86.29-49.81c-9.74-5.62-17.63-20.7-17.63-33.68V17.58c0-6.6-5.42-8.06-2.13-10.43a861.15 861.15 0 0 1 9.69-4.65c3.54-1.36 7.32-2 11.92.69L237.41 53C247.15 58.63 255 73.7 255 86.68v229.8c0 6.89-2.23 11.81-5.78 14.06a1005.74 1005.74 0 0 1-11.42 5.62c-3.11 1.04 2.02-2.84-2.23-5.3z" fill="url(#Q)"/><path d="M235.57 330.86l-86.29-49.81c-9.74-5.62-17.63-20.7-17.63-33.68V17.58c0-6.6-5.42-8.06-2.13-10.43.12-.09 9.33-4.52 9.48-4.57 3.53-1.36 7.32-2 11.91.69l86.29 49.82c9.73 5.62 17.63 20.69 17.63 33.67v229.8c0 6.89-2.23 11.81-5.78 14.06-.21.13-11 5.46-11.21 5.54-3.15 1.04 1.98-2.84-2.27-5.3z" fill="url(#R)"/><path d="M235.57 330.86l-86.29-49.81c-9.74-5.62-17.63-20.7-17.63-33.68V17.58c0-6.6-5.42-8.06-2.13-10.43.12-.09 9.12-4.44 9.26-4.5 3.54-1.35 7.33-1.95 11.92.7L237 53.17c9.73 5.62 17.62 20.69 17.62 33.67v229.79c0 6.9-2.23 11.82-5.77 14.07-.21.13-10.77 5.38-11 5.46-3.16 1.04 1.97-2.84-2.28-5.3z" fill="url(#S)"/><path d="M235.57 330.86l-86.29-49.81c-9.74-5.62-17.63-20.7-17.63-33.68V17.58c0-6.6-5.42-8.06-2.13-10.43.12-.09 8.91-4.36 9-4.42 3.54-1.35 7.32-2 11.92.7l86.29 49.82c9.73 5.61 17.62 20.69 17.62 33.67v229.79c0 6.9-2.23 11.81-5.78 14.06-.21.14-10.55 5.31-10.78 5.39-3.1 1.04 2.03-2.84-2.22-5.3z" fill="url(#T)"/><path d="M235.57 330.86l-86.29-49.81c-9.74-5.62-17.63-20.7-17.63-33.68V17.58c0-6.6-5.42-8.06-2.13-10.43.12-.09 8.7-4.28 8.84-4.34 3.54-1.35 7.32-2 11.92.7l86.28 49.81C246.3 58.94 254.19 74 254.19 87v229.79c0 6.9-2.23 11.81-5.78 14.06-.21.14-10.34 5.23-10.57 5.31-3.15 1.04 1.98-2.84-2.27-5.3z" fill="url(#U)"/><path d="M227.33 334.76L141 284.94c-9.73-5.62-17.62-20.69-17.62-33.67V21.47c0-13 7.89-18.94 17.62-13.32L227.33 58C237.06 63.59 245 78.66 245 91.64v229.8c0 12.97-7.94 18.94-17.67 13.32z" fill="#fff"/><path d="M234.32 335.13a12.36 12.36 0 0 1-6.12-1.88l-86.29-49.82c-9.23-5.33-16.75-19.76-16.75-32.16V21.47c0-8.31 3.49-13.69 8.88-13.69a12.4 12.4 0 0 1 6.13 1.88l86.29 49.82c9.23 5.33 16.75 19.76 16.75 32.16v229.8c0 8.31-3.49 13.69-8.89 13.69z" fill="url(#V)"/><path d="M129.25 254.2V25.28c0-9.52 5.79-13.9 12.93-9.77l84 48.49c7.14 4.13 12.93 15.19 12.93 24.71v228.92c0 9.52-5.79 13.89-12.93 9.77l-84-48.5c-7.18-4.12-12.93-15.18-12.93-24.7z" class="EH"/><path d="M143.16,18c-6.73-3.89-12.19-.78-12.19,7V256.47c0,7.73,5.46,17.14,12.19,21l82.05,47.37c6.73,3.89,12.19.77,12.19-6.95V86.43c0-7.72-5.46-17.13-12.19-21Z" fill="url(#W)"/><path d="M251.57 167.16h0c-2.47 1.43-4.48-.09-4.48-3.39v-18.7c0-3.3 2-7.13 4.48-8.56h0c2.48-1.43 4.48.09 4.48 3.39v18.7c0 3.3-2 7.13-4.48 8.56z" fill="url(#X)"/><g opacity=".8"><path d="M191.86 47.19l18 10.37-34.67 39.33-5.96 49.64-17.17 22.29-11.87 27.74-7.49 18.15v-33.48l8.77-22.64 13.15-16.08 5.85-23.02 9.72-30.26 21.67-42.04z" fill="url(#Y)"/><path d="M223.06,122.37l13.37,7.71v-2.9l-13.37-7.71V65.33l-2.51-1.45V118l-23-13.36-7.79-20.2L132.07,51.23v2.9l11.86,6.81v45.2l-11.86-6.81v2.9L143.93,109v26.85l-11.86-6.84V132l14.37,8.3V110.49L198,140.28v49.61l-.14,0-23.33,7-42.47-24.53v2.9l28.59,16.51V222l-28.59,12.73v2.75l29.57-13.16L187.81,269l-24.72,19.15,2.35,1.36L207.31,257l13.24,7.59V319.8h2.51V266.05l13.16,7.54.21-.36v-2.42l-13.37-7.65v-37l13.37,7.71V231l-13.37-7.71v-16L236.43,215v-2.9l-13.37-7.71V154.76l13.37,7.72v-2.9l-13.37-7.72Zm-59.89,70.84,10.59,6.11.47.28,23.33-7,.45.24v16l-.32-.2-34.52,12.29Zm57.38,68.51L207.1,254l-17.29,13.39L164,223.25l33.59-11.87,7.07,4.11v.08h.14l15.8,9.12Zm0-39.93-20-11.58v-16l20,11.59Zm0-18.86-20-11.59V141.73l20,11.58Zm0-52.52-74.11-42.82V62.39l41.3,23.8,7.78,20.2,25,14.53Z" opacity=".8" class="EH"/></g><g class="AC" opacity=".5"><path d="M361.24 277.26c-17.07 9.85-47.05 7.08-47.05 7.08a33.21 33.21 0 0 1 16.63-27.89c12-6.94 25.91-6.57 34.31-.82s8.12 14.69-3.89 21.63z" opacity="0" fill="#fff"/><path d="M360.85 277.14c-16.81 9.71-46.5 7.1-46.5 7.1s-.26-17.88 16.55-27.58c11.82-6.83 25.56-6.49 33.83-.83s7.94 14.49-3.88 21.31z" fill="#fefeff" opacity=".03"/><path d="M360.46 277c-16.54 9.55-46 7.1-46 7.1s-.06-17.71 16.48-27.26c11.64-6.72 25.2-6.41 33.34-.84s7.81 14.31-3.82 21z" fill="#fdfdff" opacity=".06"/><path d="M360.07 276.92c-16.28 9.4-45.42 7.11-45.42 7.11s.14-17.55 16.42-26.95c11.44-6.61 24.83-6.32 32.84-.85s7.61 14.08-3.84 20.69z" fill="#fdfbff" opacity=".09"/><path d="M359.68 276.8c-16 9.25-44.87 7.13-44.87 7.13s.32-17.4 16.34-26.64c11.26-6.51 24.47-6.24 32.35-.85s7.44 13.86-3.82 20.36z" fill="#fcfaff" opacity=".13"/><path d="M359.29 276.69c-15.75 9.09-44.33 7.14-44.33 7.14s.52-17.24 16.27-26.33c11.08-6.4 24.11-6.16 31.86-.86s7.27 13.66-3.8 20.05z" fill="#fbf9ff" opacity=".16"/><path d="M358.9 276.58c-15.49 8.94-43.79 7.15-43.79 7.15s.72-17.08 16.2-26c10.89-6.29 23.75-6.08 31.37-.87s7.11 13.43-3.78 19.72z" fill="#faf8ff" opacity=".19"/><path d="M358.51 276.47c-15.22 8.78-43.24 7.16-43.24 7.16s.9-16.93 16.12-25.71c10.71-6.18 23.39-6 30.88-.88s6.94 13.25-3.76 19.43z" fill="#faf6ff" opacity=".22"/><path d="M358.12 276.35c-15 8.64-42.7 7.18-42.7 7.18s1.1-16.77 16.06-25.4c10.51-6.08 23-5.92 30.38-.89s6.78 13.04-3.74 19.11z" fill="#f9f5ff" opacity=".25"/><path d="M357.73 276.24c-14.69 8.48-42.16 7.19-42.16 7.19s1.3-16.61 16-25.09c10.33-6 22.67-5.84 29.89-.89s6.6 12.83-3.73 18.79z" fill="#f8f4ff" opacity=".28"/><path d="M357.34 276.13c-14.43 8.33-41.61 7.2-41.61 7.2s1.48-16.45 15.91-24.78c10.14-5.86 22.31-5.76 29.4-.9s6.44 12.62-3.7 18.48z" fill="#f7f3ff" opacity=".31"/><path d="M357,276c-14.16,8.17-41.07,7.21-41.07,7.21s1.68-16.3,15.84-24.47c10-5.75,21.95-5.68,28.91-.91S366.91,270.27,357,276Z" fill="#f6f1ff" opacity=".34"/><path d="M356.56 275.9c-13.9 8-40.53 7.23-40.53 7.23S317.91 267 331.8 259c9.77-5.64 21.59-5.6 28.43-.92s6.1 12.18-3.67 17.82z" fill="#f6f0ff" opacity=".38"/><path d="M356.17 275.79c-13.63 7.87-40 7.24-40 7.24s2.07-16 15.7-23.85c9.59-5.54 21.23-5.51 27.94-.93s5.94 12.01-3.64 17.54z" fill="#f5efff" opacity=".41"/><path d="M355.78 275.68c-13.37 7.71-39.44 7.24-39.44 7.24s2.26-15.82 15.66-23.53c9.4-5.43 20.86-5.43 27.44-.93s5.74 11.79-3.66 17.22z" fill="#f4eeff" opacity=".44"/><path d="M355.39 275.56c-13.1 7.57-38.9 7.26-38.9 7.26s2.46-15.66 15.56-23.22c9.21-5.32 20.5-5.35 26.95-.94s5.6 11.59-3.61 16.9z" fill="#f3ecff" opacity=".47"/><path d="M355,275.45c-12.84,7.41-38.36,7.27-38.36,7.27s2.65-15.5,15.49-22.91c9-5.21,20.14-5.27,26.46-.95S364,270.24,355,275.45Z" opacity=".5" fill="#f3ebff"/><path d="M354.61 275.34c-12.57 7.26-37.81 7.28-37.81 7.28s2.84-15.34 15.41-22.6c8.84-5.11 19.79-5.19 26-1s5.24 11.21-3.6 16.32z" fill="#f2eaff" opacity=".53"/><path d="M354.22 275.23c-12.31 7.1-37.27 7.29-37.27 7.29s3-15.19 15.34-22.29c8.66-5 19.43-5.11 25.48-1s5.1 11-3.55 16z" fill="#f1e9ff" opacity=".56"/><path d="M353.83 275.11c-12 7-36.73 7.31-36.73 7.31s3.23-15 15.27-22c8.47-4.89 19.07-5 25-1s4.92 10.8-3.54 15.69z" fill="#f0e7ff" opacity=".59"/><path d="M353.44 275c-11.78 6.8-36.18 7.32-36.18 7.32s3.42-14.87 15.2-21.67c8.28-4.78 18.7-4.95 24.49-1s4.77 10.57-3.51 15.35z" fill="#efe6ff" opacity=".63"/><path d="M353.05 274.89c-11.51 6.64-35.64 7.33-35.64 7.33s3.62-14.72 15.13-21.36c8.09-4.68 18.34-4.87 24-1s4.6 10.35-3.49 15.03z" fill="#efe5ff" opacity=".66"/><path d="M352.66 274.78c-11.25 6.49-35.1 7.34-35.1 7.34s3.81-14.56 15.06-21.05c7.91-4.57 18-4.78 23.51-1s4.43 10.14-3.47 14.71z" fill="#eee4ff" opacity=".69"/><path d="M352.27 274.66c-11 6.34-34.55 7.36-34.55 7.36s4-14.4 15-20.74c7.72-4.46 17.62-4.7 23-1s4.28 9.92-3.45 14.38z" fill="#ede2ff" opacity=".72"/><path d="M351.88 274.55c-10.72 6.19-34 7.37-34 7.37s4.2-14.24 14.91-20.43c7.54-4.35 17.26-4.62 22.54-1s4.08 9.71-3.45 14.06z" fill="#ece1ff" opacity=".75"/><path d="M351.49 274.44c-10.46 6-33.47 7.38-33.47 7.38s4.39-14.09 14.85-20.12c7.35-4.24 16.9-4.54 22-1s3.97 9.49-3.38 13.74z" fill="#ebe0ff" opacity=".78"/><path d="M351.1 274.32c-10.19 5.89-32.92 7.4-32.92 7.4s4.58-13.93 14.77-19.81c7.16-4.14 16.54-4.46 21.55-1s3.76 9.28-3.4 13.41z" fill="#ebdfff" opacity=".81"/><path d="M350.71 274.21c-9.93 5.73-32.38 7.4-32.38 7.4s4.78-13.76 14.7-19.49c7-4 16.18-4.38 21.06-1s3.59 9.06-3.38 13.09z" fill="#eaddff" opacity=".84"/><path d="M350.31 274.1c-9.65 5.57-31.83 7.41-31.83 7.41s5-13.61 14.63-19.18c6.79-3.92 15.82-4.3 20.57-1.05s3.43 8.9-3.37 12.82z" fill="#e9dcff" opacity=".88"/><path d="M349.92 274c-9.39 5.42-31.28 7.42-31.28 7.42s5.16-13.45 14.55-18.87c6.61-3.81 15.46-4.22 20.08-1.06s3.26 8.68-3.35 12.51z" fill="#e8dbff" opacity=".91"/><path d="M349.53 273.87c-9.12 5.27-30.74 7.44-30.74 7.44s5.36-13.29 14.48-18.56c6.42-3.71 15.1-4.14 19.59-1.06s3.14 8.48-3.33 12.18z" fill="#e8daff" opacity=".94"/><path d="M349.14 273.76c-8.86 5.12-30.2 7.45-30.2 7.45s5.56-13.13 14.42-18.25c6.23-3.6 14.73-4.06 19.09-1.07s2.93 8.27-3.31 11.87z" fill="#e7d8ff" opacity=".97"/><path d="M348.75 273.65c-8.59 5-29.65 7.46-29.65 7.46s5.74-13 14.34-17.94c6-3.49 14.37-4 18.6-1.08s2.76 8.07-3.29 11.56z" fill="#e6d7ff"/></g><path d="M325.59 224.91C317.52 220.25 311 209 311 199.71c0-3.67 1-6.45 2.77-8.21-.28 0-2.9 1.19-3.17 1.24-3.89.76-6.46 4.38-6.46 10.17 0 9.26 6.54 20.55 14.61 25.21 4.42 2.55 8.37 2.57 11 .56.27-.21 2.88-1.56 3.13-1.81a12.56 12.56 0 0 1-7.29-1.96z" fill="url(#Z)"/><path d="M327.15 172.22c-9-5.19-17-5.34-22.6-1.46l-6.46 3 .8 4.15a29.08 29.08 0 0 0-2.17 11.65c0 13.21 7.06 34.05 14.38 52.11l7.63 39.86 8.42-4.21s30.43-25.19 30.43-52.62c0-19.28-13.58-42.78-30.43-52.48zm-8.42 55.9c-8.07-4.66-14.61-16-14.61-25.21s6.54-13 14.61-8.33 14.62 15.95 14.62 25.21-6.55 12.99-14.62 8.33z" fill="url(#a)"/><path d="M318.73 176.43c-16.81-9.71-30.43-1.94-30.43 17.35 0 27.42 30.43 87.76 30.43 87.76s30.44-25.19 30.44-52.62c0-19.29-13.63-42.79-30.44-52.49zm0 51.69c-8.07-4.66-14.61-16-14.61-25.21s6.54-13 14.61-8.33 14.62 15.95 14.62 25.21-6.55 12.99-14.62 8.33z" fill="url(#b)"/><path class="An" d="M320.66 175.37c-8.78-5.07-16.67-5.33-22.22-1.71 5.39-2.44 12.48-1.74 20.29 2.77 16.81 9.7 30.44 33.2 30.44 52.49 0 23.5-22.34 45.34-28.73 51.12l.22.44s30.44-25.19 30.44-52.61c0-19.29-13.63-42.79-30.44-52.5z" fill="url(#c)"/><path class="Ao" d="M319.6 227.86c-8.07-4.66-14.61-16-14.61-25.21 0-4.53 1.57-7.72 4.12-9.27-3.15 1.25-5.17 4.67-5.17 9.79 0 9.26 6.55 20.55 14.62 25.21 4.12 2.38 7.83 2.56 10.48.94-2.54 1.02-5.83.62-9.44-1.46z" fill="url(#d)"/><path d="M201.86 327.73l-6-3.67V150.39l23.33 13.33V122.1l-25.3-15.05-8.75-20.74-25.99-15.28 3.04-5.17 27.71 16.28 8.75 20.76 26.54 15.79v55.37l-23.33-13.33v167z" fill="#ffe585"/><g fill="#fff"><path d="M166.51 71.81c0 3.7-2.61 5.19-5.84 3.33a12.88 12.88 0 0 1-5.84-10.07c0-3.7 2.62-5.19 5.84-3.33a12.85 12.85 0 0 1 5.84 10.07zm-1.65 9.38a9.16 9.16 0 0 1-4.56-1.38c-5.36-3.09-9.72-10.61-9.72-16.76 0-4.47 2.32-7.36 5.9-7.36a9.21 9.21 0 0 1 4.57 1.39c5.35 3.09 9.71 10.61 9.71 16.75 0 4.47-2.31 7.36-5.9 7.36zm-8.38-24c-2.71 0-4.4 2.25-4.4 5.86 0 5.67 4 12.61 9 15.46a7.89 7.89 0 0 0 3.81 1.18c2.72 0 4.4-2.24 4.4-5.86 0-5.67-4-12.6-9-15.46a7.89 7.89 0 0 0-3.81-1.18z"/></g><path class="Aq" d="M124.69 93.39l41.83-12.83 3.49-6.73-5.15-12.6-7.67-5.34-4.33 1.67-31.5 31.5 3.33 4.33z" fill="url(#e)"/><path d="M61.39 142.25L6.21 110.34C2.78 108.36 0 103.05 0 98.47V57.62c0-4.58 2.78-6.68 6.21-4.7l55.18 31.91c3.43 2 6.21 7.3 6.21 11.88v40.85c0 4.57-2.78 6.67-6.21 4.69z" fill="url(#f)"/><path d="M63.15 83.9L8 52a4.21 4.21 0 0 0-3.64-.54c-.13 0-1.86 1-2 1h0a4 4 0 0 1 3.86.42l55.17 31.95c3.43 2 6.21 7.3 6.21 11.88v40.85c0 2.85-1.08 4.74-2.73 5.28a1 1 0 0 0 .54-.18l2-1.16c1.18-.83 1.91-2.53 1.91-4.88V95.77c.04-4.58-2.74-9.89-6.17-11.87z" fill="url(#g)"/><path d="M61.69 84.68L6.51 52.77a4.13 4.13 0 0 0-3.74-.48 4.6 4.6 0 0 1 3 .71l55.17 31.91c3.43 2 6.21 7.29 6.21 11.87v40.85c0 2.7-1 4.53-2.47 5.18 1.92-.31 3.22-2.28 3.22-5.4V96.56c0-4.56-2.78-9.89-6.21-11.88z" fill="#fff"/><path d="M15.3 98.64v-6.99L8.62 87.8v6.99l6.68 3.85z" fill="url(#h)"/><use xlink:href="#Cf" fill="url(#i)"/><use xlink:href="#Cg" fill="url(#j)"/><path d="M8.62 79.48l6.68 3.85v-7l-6.68-3.85v7z" fill="url(#k)"/><path d="M15.88 76l6.69 3.85v-6.99l-6.69-3.85V76z" fill="url(#l)"/><path d="M23.14 80.18l6.69 3.85v-7l-6.69-3.84v6.99z" fill="url(#m)"/><path d="M22.57 87.5v-6.99l-6.69-3.84v6.99l6.69 3.84z" fill="url(#n)"/><path d="M22.57 110.47v-6.99l-6.69-3.84v6.99l6.69 3.84z" fill="url(#o)"/><use xlink:href="#Ch" fill="url(#p)"/><use xlink:href="#Ci" fill="url(#q)"/><use xlink:href="#Cj" fill="url(#r)"/><use xlink:href="#Ck" fill="url(#s)"/><use xlink:href="#Cj" y="-7.66" fill="url(#t)"/><use xlink:href="#Ch" x="14.52" y="8.36" fill="url(#u)"/><use xlink:href="#Cl" fill="url(#v)"/><use xlink:href="#Ch" x="7.26" y="4.18" fill="url(#w)"/><path d="M37.09 103.52v-6.99l-6.69-3.85v6.99l6.69 3.85z" fill="url(#x)"/><path d="M23.14 87.84l6.69 3.84v-6.99l-6.69-3.85v7z" fill="url(#y)"/><use xlink:href="#Cg" x="21.78" y="-2.78" fill="url(#z)"/><path d="M30.4 92.02l6.69 3.84v-6.99l-6.69-3.85v7z" fill="url(#AA)"/><use xlink:href="#Cg" x="7.26" y="-3.48" fill="url(#AB)"/><path d="M15.88 91.31l6.69 3.85v-6.99l-6.69-3.85v6.99z" fill="url(#AC)"/><path d="M29.83 107v-7l-6.69-3.84v6.99l6.69 3.85z" fill="url(#AD)"/><path d="M44.35 108.36l-6.69-3.84v6.99l6.69 3.85v-7z" fill="url(#AE)"/><path d="M44.93 85.73v6.99l6.68 3.84v-6.99l-6.68-3.84z" fill="url(#AF)"/><path d="M37.66 88.54l6.69 3.85v-7l-6.69-3.84v6.99z" fill="url(#AG)"/><use xlink:href="#Cj" x="-7.26" y="-11.84" fill="url(#AH)"/><path d="M37.66 96.86v6.99l6.69 3.85v-6.99l-6.69-3.85z" fill="url(#AI)"/><path d="M30.4 84.36l6.69 3.85v-7l-6.69-3.84v6.99z" fill="url(#AJ)"/><use xlink:href="#Cl" y="-15.31" fill="url(#AK)"/><path d="M37.09 104.18l-6.69-3.84v6.99l6.69 3.85v-7z" fill="url(#AL)"/><path d="M37.09 119.5l-6.69-3.85v6.26l6.69 3.87v-6.28z" fill="url(#AM)"/><use xlink:href="#Cm" fill="url(#AN)"/><path d="M52.19 89.91v6.99l6.68 3.84v-6.99l-6.68-3.84z" fill="url(#AO)"/><path d="M58.87 132.04l-6.68-3.85v6.32l6.68 3.86v-6.33z" fill="url(#AP)"/><path d="M59.45 117.06v6.99l6.05 3.48v-6.99l-6.05-3.48z" fill="url(#AQ)"/><path d="M29.83 115.32l-6.69-3.85v6.24l6.69 3.87v-6.26z" fill="url(#AR)"/><path d="M44.35 123.68l-6.69-3.85v6.28l6.69 3.86v-6.29z" fill="url(#AS)"/><path d="M51.61 127.86l-6.68-3.85v6.3l6.68 3.86v-6.31z" fill="url(#AT)"/><path d="M65.5 128.2l-6.05-3.49v6.99l6.05 3.49v-6.99z" fill="url(#AU)"/><path d="M8,63.83V56.4L5.16,54.74a2.89,2.89,0,0,0-1.41-.47C2.61,54.27,2.1,56,2.1,57.62v2.79Z" fill="url(#AV)"/><path d="M8,102.78l-5.89-3.4c.33,3.63,2.53,7.66,5.11,9.15L8,109Z" fill="url(#AW)"/><path d="M59.45,132.37v6.34l3,1.73a3,3,0,0,0,1.41.46c1.14,0,1.65-1.68,1.65-3.34v-1.71Z" fill="url(#AX)"/><path d="M59.45 94.08v7l6.05 3.48v-6.99l-6.05-3.49z" fill="url(#AY)"/><path d="M59.45 101.74v6.99l6.05 3.49v-6.99l-6.05-3.49z" fill="url(#AZ)"/><path d="M59.45,93.42l6,3.49v-.2c0-3.84-2.36-8.44-5.16-10.06l-.89-.52Z" fill="url(#Aa)"/><path d="M59.45 109.4v6.99l6.05 3.49v-7l-6.05-3.48z" fill="url(#Ab)"/><path d="M22.57 111.14l-6.69-3.85v6.22l6.69 3.87v-6.24z" fill="url(#Ac)"/><path d="M23.14 72.52l6.69 3.85V69l-6.69-3.86v7.38z" fill="url(#Ad)"/><path d="M30.4 76.7l6.69 3.85V73.2l-6.69-3.87v7.37z" fill="url(#Ae)"/><path d="M15.88 68.34l6.69 3.85V64.8l-6.69-3.86v7.4z" fill="url(#Af)"/><path d="M37.66 80.88l6.69 3.85V77.4l-6.69-3.87v7.35z" fill="url(#Ag)"/><path d="M15.3 113.18v-6.22l-6.68-3.85v6.2l6.68 3.87z" fill="url(#Ah)"/><path d="M52.19 81.93v7.31l6.68 3.85V85.8l-6.68-3.87z" fill="url(#Ai)"/><path d="M44.93 85.06l6.68 3.85V81.6l-6.68-3.87v7.33z" fill="url(#Aj)"/><path d="M8.62 64.16l6.68 3.85V60.6l-6.68-3.86v7.42z" fill="url(#Ak)"/><path d="M8.04 94.46v-6.99L2.1 84.04v7l5.94 3.42z" fill="url(#Al)"/><path d="M8,95.12,2.1,91.7v6.77a1.85,1.85,0,0,0,0,.23L8,102.11Z" fill="url(#Am)"/><use xlink:href="#Cf" y="-15.31" fill="url(#An)"/><path d="M15.3 99.3l-6.68-3.84v6.99l6.68 3.84V99.3z" fill="url(#Ao)"/><path d="M2.1 68.07l5.94 3.42V64.5L2.1 61.07v7z" fill="url(#Ap)"/><path d="M8.04 86.8v-6.99L2.1 76.39v6.99l5.94 3.42z" fill="url(#Aq)"/><path d="M8.04 79.14v-6.99L2.1 68.73v6.99l5.94 3.42z" fill="url(#Ar)"/><path d="M89.85 103.62L99.1 118l26.25-28.75-35.5 14.37z" fill="url(#As)"/><path d="M123,115.13c0,6-2.07,10.27-5.45,12.33-.1.07-13,4.56-13.09,4.62-3.09,1.73-1.11-2.2-5.81-4.92-9.47-5.46-17.14-18.69-17.14-29.55,0-5.37-5-5.41-1.92-7.2.08,0,10.32-10.24,10.42-10.29,3.5-1.9,8.29-1.55,13.56,1.5C114.3,87.81,123,102.81,123,115.13Z" fill="url(#At)"/><ellipse cx="91.71" cy="111.44" rx="13.95" ry="24.16" transform="matrix(.863307 -.504678 .504678 .863307 -43.71 61.52)" fill="url(#Au)"/><ellipse cx="91.17" cy="112.01" rx="13.06" ry="22.63" transform="matrix(.863307 -.504678 .504678 .863307 -44.07 61.32)" class="EI"/><path class="CI" d="M92.53 91.37c-4.54-2.62-8.66-3-11.72-1.44 2.85-.8 6.4-.2 10.24 2 9.46 5.46 17.13 18.69 17.13 29.55 0 5.65-2.08 9.54-5.41 11.21 4.18-1.17 6.89-5.34 6.89-11.79 0-10.84-7.66-24.07-17.13-29.53z" fill="url(#Av)"/><ellipse cx="91.71" cy="111.44" rx="13.95" ry="24.16" transform="matrix(.863307 -.504678 .504678 .863307 -43.71 61.52)" fill="url(#Au)"/><ellipse cx="91.17" cy="112.01" rx="13.06" ry="22.63" transform="matrix(.863307 -.504678 .504678 .863307 -44.07 61.32)" class="EI"/><path class="CI" d="M92.53 91.37c-4.54-2.62-8.66-3-11.72-1.44 2.85-.8 6.4-.2 10.24 2 9.46 5.46 17.13 18.69 17.13 29.55 0 5.65-2.08 9.54-5.41 11.21 4.18-1.17 6.89-5.34 6.89-11.79 0-10.84-7.66-24.07-17.13-29.53z" fill="url(#Av)"/><path class="CJ EG" d="M120.32 116.5c0-12.23-8.68-27.2-19.34-33.35-4.25-2.45-8.31-3.24-11.71-2.32l-1.79 1.77a.55.55 0 0 0 .17 0c3.42-1.86 8-1.34 12.83 1.46 10.39 6 18.84 20.57 18.84 32.49 0 5.53-1.82 9.68-5.12 11.7a.51.51 0 0 0-.22.53l2.17-.76c2.69-2.48 4.17-6.47 4.17-11.52z"/><circle cx="123.53" cy="90.68" r="3.31" fill="url(#Aw)"/><ellipse class="CL" cx="98.85" cy="90.94" rx="26.55" ry="12.02" transform="matrix(.891955 -.452123 .452123 .891955 -30.43 54.51)" fill="url(#Ax)"/><path d="M104.34 122c0 4.63-1.6 7.91-4.2 9.5L68.88 150c-2.7 1.51-1-1.92-5.08-4.29-8.26-4.77-14.95-16.31-14.95-25.79 0-4.68-4.33-4.72-1.68-6.28L79 95.09c2.69-1.46 6.38-1.19 10.44 1.15 8.2 4.76 14.9 16.32 14.9 25.76z" fill="url(#Ay)"/><ellipse cx="57.74" cy="131.98" rx="12.17" ry="21.08" transform="matrix(.863307 -.504678 .504678 .863307 -58.72 47.18)" fill="url(#Az)"/><path class="CO" d="M58.46 114.47c-4-2.29-7.55-2.6-10.23-1.26 2.5-.7 5.59-.18 8.94 1.76 8.26 4.77 15 16.31 15 25.79 0 4.93-1.82 8.32-4.72 9.78 3.65-1 6-4.66 6-10.29-.04-9.47-6.73-21.02-14.99-25.78z" fill="url(#BA)"/><g class="CP"><path d="M51.705 113.624l.96-.279 10.864 37.321-.96.279z" class="EG"/></g><g class="CP"><path d="M71.25 134.24l-27.22-3.17.12-.99 26.89 3.13 31.82-18.25.5.87-32.11 18.41z" class="EG"/></g><g class="CP"><path d="M43.845 118.192l.73-.684 26.813 28.623-.73.684z" class="EG"/></g><g class="CP"><path d="M51.437 144.013l11.466-24.157.903.429-11.466 24.157z" class="EG"/></g><g class="CP"><path d="M46.987 114.565l.868-.496 20.393 35.695-.868.496z" class="EG"/></g><g class="CP"><path d="M46.961 137.394l20.845-11.361.479.878-20.845 11.361z" class="EG"/></g><g class="CP"><path d="M42.791 123.975l.508-.861 29.157 17.195-.508.861z" class="EG"/></g><g class="CP"><path d="M56.954 148.779l.325-33.278 1 .01-.325 33.278z" class="EG"/></g><path d="M65,136.42c0,4.64-3.28,6.51-7.32,4.17A16.09,16.09,0,0,1,50.38,128c0-4.64,3.27-6.5,7.32-4.17A16.12,16.12,0,0,1,65,136.42Z" class="EI"/><path class="CR" d="M76.28 110.91c1 2.56-2.67 6.51-8.31 8.83s-11.07 2.13-12.12-.43 2.67-6.5 8.32-8.82 11.06-2.13 12.11.42z" fill="url(#BB)"/><path d="M62.8 136.89c0 1.94-.67 3.32-1.76 4l-9.32 5.49c-1.14.64-.41-.81-2.14-1.8a13.86 13.86 0 0 1-6.29-10.85c0-2-1.82-2-.71-2.65l9.54-5.52c1.13-.62 2.68-.5 4.39.48a13.89 13.89 0 0 1 6.29 10.85z" fill="url(#BC)"/><ellipse cx="47.03" cy="138.79" rx="5.12" ry="8.87" transform="matrix(.863307 -.504678 .504678 .863307 -63.62 42.71)" fill="url(#BD)"/><path class="CU" d="M47.33 131.42a4.51 4.51 0 0 0-4.3-.52 4.89 4.89 0 0 1 3.76.74 13.86 13.86 0 0 1 6.29 10.85c0 2.07-.76 3.5-2 4.11 1.54-.43 2.53-1.95 2.53-4.32a13.86 13.86 0 0 0-6.28-10.86z" fill="url(#BE)"/><path class="CV" d="M55.46 129.35c.53 1.31-1.36 3.32-4.24 4.5s-5.64 1.08-6.17-.22 1.36-3.31 4.23-4.49 5.64-1.09 6.18.21z" fill="url(#BF)"/><g class="CW EH" opacity=".7"><path d="M105.46,104c-6.56-3.79-11.89-.76-11.89,6.78v37.67c0,7.53,5.33,16.71,11.89,20.5l39.65,23.46c6.57,3.79,14.52.34,14.52-7.2V147.5c0-7.53-7.95-16.3-14.52-20.09Z" opacity="0"/><path d="M105.34,104.34c-6.49-3.75-11.75-.75-11.75,6.7v37.13c0,7.45,5.26,16.53,11.75,20.28l39.35,23.24c6.5,3.75,14.15.37,14.15-7.09V147.48c0-7.45-7.65-16.16-14.15-19.9Z" opacity=".09"/><path d="M105.23,104.71C98.8,101,93.6,104,93.6,111.34v36.59c0,7.36,5.2,16.34,11.63,20l39.05,23c6.42,3.71,13.78.4,13.78-7V147.45c0-7.37-7.36-16-13.78-19.71Z" opacity=".18"/><path d="M105.11,105.09c-6.35-3.66-11.5-.73-11.5,6.56v36c0,7.28,5.15,16.16,11.5,19.83l38.75,22.8c6.35,3.67,13.41.43,13.41-6.86v-36c0-7.29-7.06-15.87-13.41-19.53Z" opacity=".27"/><path d="M105,105.47c-6.28-3.62-11.37-.72-11.37,6.48v35.5c0,7.2,5.09,16,11.37,19.6l38.45,22.59c6.28,3.62,13,.46,13-6.75V147.4c0-7.2-6.76-15.72-13-19.34Z" opacity=".36"/><path d="M104.87,105.85c-6.2-3.58-11.23-.71-11.23,6.41v35c0,7.12,5,15.79,11.23,19.38L143,189c6.21,3.58,12.67.49,12.67-6.64V147.38c0-7.12-6.46-15.58-12.67-19.16Z" opacity=".45"/><path d="M104.76,106.23c-6.14-3.54-11.11-.71-11.11,6.33V147c0,7,5,15.61,11.11,19.15l37.84,22.16c6.14,3.54,12.3.51,12.3-6.53v-34.4c0-7-6.16-15.42-12.3-19Z" opacity=".55"/><path d="M104.64,106.61c-6.06-3.5-11-.7-11,6.26v33.86c0,7,4.92,15.43,11,18.93l37.54,21.93c6.06,3.5,11.94.55,11.94-6.41V147.33c0-7-5.88-15.28-11.94-18.78Z" opacity=".64"/><path d="M104.52,107c-6-3.46-10.84-.69-10.84,6.18v33.32c0,6.87,4.85,15.24,10.84,18.7l37.24,21.72c6,3.46,11.57.58,11.57-6.3V147.3c0-6.87-5.58-15.13-11.57-18.59Z" opacity=".73"/><path d="M104.4,107.37c-5.91-3.42-10.71-.68-10.71,6.11v32.77c0,6.79,4.8,15.06,10.71,18.48l36.95,21.5c5.91,3.42,11.19.6,11.19-6.19V147.28c0-6.8-5.28-15-11.19-18.41Z" opacity=".82"/><path d="M104.29,107.75c-5.85-3.38-10.59-.68-10.59,6V146c0,6.7,4.74,14.88,10.59,18.25l36.64,21.29c5.84,3.37,10.82.63,10.82-6.08V147.25c0-6.71-5-14.84-10.82-18.22Z" opacity=".91"/><path d="M104.17,108.13c-5.77-3.34-10.46-.67-10.46,6v31.68c0,6.62,4.69,14.69,10.46,18l36.34,21.06c5.77,3.34,10.45.67,10.45-6V147.22c0-6.62-4.68-14.69-10.45-18Z"/></g><path d="M144.51 190l-55.17-31.93c-3.43-2-6.22-7.3-6.22-11.88v-40.85c0-4.57 2.79-6.68 6.22-4.69l55.17 31.91c3.43 2 6.22 7.29 6.22 11.87v40.85c0 4.58-2.79 6.72-6.22 4.72z" fill="url(#BG)"/><path d="M146.27 131.62L91.1 99.71a4.2 4.2 0 0 0-3.64-.53c-.13 0-1.86 1-2 1h0a4 4 0 0 1 3.87.43l55.17 31.91c3.43 2 6.22 7.29 6.22 11.87v40.85c0 2.86-1.09 4.75-2.74 5.29a1.15 1.15 0 0 0 .55-.19c.08 0 2-1.11 2-1.16 1.18-.83 1.92-2.52 1.92-4.88v-40.81c.04-4.57-2.75-9.89-6.18-11.87z" fill="url(#BH)"/><path d="M144.81 132.41L89.64 100.5a4.12 4.12 0 0 0-3.75-.48 4.59 4.59 0 0 1 3 .7l55.17 31.91c3.44 2 6.22 7.3 6.22 11.87v40.85c0 2.7-1 4.53-2.47 5.18 1.91-.3 3.21-2.27 3.21-5.4v-40.85c-.02-4.58-2.78-9.89-6.21-11.87z" fill="#fff"/><path d="M98.43 146.36v-6.99l-6.69-3.85v6.99l6.69 3.85z" fill="url(#BI)"/><path d="M98.43 138.71v-7l-6.69-3.84v6.99l6.69 3.85z" fill="url(#BJ)"/><path d="M105.69 143.55L99 139.7v6.99l6.69 3.85v-6.99z" fill="url(#BK)"/><path d="M91.74 127.2l6.69 3.85v-6.99l-6.69-3.85v6.99z" fill="url(#BL)"/><path d="M99 123.72l6.69 3.85v-6.99L99 116.73v6.99z" fill="url(#BM)"/><use xlink:href="#Cn" fill="url(#BN)"/><path d="M105.69 135.23v-6.99L99 124.39v6.99l6.69 3.85z" fill="url(#BO)"/><path d="M105.69 158.2v-6.99L99 147.36v6.99l6.69 3.85z" fill="url(#BP)"/><use xlink:href="#Ci" x="54.08" y="38.66" fill="url(#BQ)"/><use xlink:href="#Cl" x="90.38" y="44.25" fill="url(#BR)"/><use xlink:href="#Cm" x="83.12" y="32.41" fill="url(#BS)"/><use xlink:href="#Cj" x="75.86" y="51.2" fill="url(#BT)"/><use xlink:href="#Ck" x="90.38" y="36.59" fill="url(#BU)"/><use xlink:href="#Cl" x="75.86" y="43.55" fill="url(#BV)"/><use xlink:href="#Cl" x="83.12" y="47.73" fill="url(#BW)"/><use xlink:href="#Ci" x="61.34" y="42.84" fill="url(#BX)"/><path d="M120.21 151.24v-6.99l-6.68-3.85v7l6.68 3.84z" fill="url(#BY)"/><path d="M106.27 135.56l6.68 3.85v-7l-6.68-3.84v6.99z" fill="url(#BZ)"/><use xlink:href="#Ci" x="68.6" y="24.05" fill="url(#Ba)"/><path d="M113.53 139.74l6.68 3.85v-7l-6.68-3.84v6.99z" fill="url(#Bb)"/><path d="M112.95 140.07l-6.68-3.85v7l6.68 3.84v-6.99z" fill="url(#Bc)"/><path d="M99 139.04l6.69 3.84v-6.99L99 132.05v6.99z" fill="url(#Bd)"/><use xlink:href="#Cf" x="97.65" y="63.74" fill="url(#Be)"/><use xlink:href="#Cl" x="75.86" y="35.89" fill="url(#Bf)"/><use xlink:href="#Cj" x="75.86" y="28.23" fill="url(#Bg)"/><use xlink:href="#Cn" x="14.52" y="8.36" fill="url(#Bh)"/><use xlink:href="#Ck" x="83.12" y="32.41" fill="url(#Bi)"/><use xlink:href="#Cm" x="68.6" y="24.05" fill="url(#Bj)"/><use xlink:href="#Cn" x="7.26" y="4.18" fill="url(#Bk)"/><use xlink:href="#Cl" x="83.12" y="32.41" fill="url(#Bl)"/><use xlink:href="#Cl" x="68.6" y="31.71" fill="url(#Bm)"/><path d="M120.21 167.22l-6.68-3.84v6.25l6.68 3.87v-6.28z" fill="url(#Bn)"/><use xlink:href="#Ck" x="90.38" y="59.56" fill="url(#Bo)"/><use xlink:href="#Cj" x="83.12" y="32.41" fill="url(#Bp)"/><path d="M141.99 179.76l-6.68-3.85v6.32l6.68 3.87v-6.34z" fill="url(#Bq)"/><path d="M142.57 164.78v6.99l6.06 3.49v-7l-6.06-3.48z" fill="url(#Br)"/><path d="M112.95 163.04l-6.68-3.84v6.23l6.68 3.87v-6.26z" fill="url(#Bs)"/><path d="M127.47 171.4l-6.68-3.85v6.28l6.68 3.87v-6.3z" fill="url(#Bt)"/><path d="M134.73 175.58l-6.68-3.85v6.3l6.68 3.87v-6.32z" fill="url(#Bu)"/><path d="M148.63 175.92l-6.06-3.48v6.99l6.06 3.48v-6.99z" fill="url(#Bv)"/><path d="M91.17,111.55v-7.42l-2.88-1.67a3,3,0,0,0-1.42-.46c-1.14,0-1.65,1.68-1.65,3.34v2.79Z" fill="url(#Bw)"/><path d="M91.17,150.5l-5.9-3.39c.33,3.62,2.54,7.65,5.12,9.14l.78.45Z" fill="url(#Bx)"/><path d="M142.57,180.09v6.34l3,1.73a3.07,3.07,0,0,0,1.42.47c1.14,0,1.65-1.68,1.65-3.35v-1.7Z" fill="url(#By)"/><path d="M142.57 141.81v6.99l6.06 3.49v-7l-6.06-3.48z" fill="url(#Bz)"/><path d="M142.57 149.47v6.99l6.06 3.48v-6.99l-6.06-3.48z" fill="url(#CA)"/><path d="M142.57,141.14l6.06,3.49v-.2c0-3.83-2.37-8.44-5.17-10.06l-.89-.51Z" fill="url(#CB)"/><path d="M142.57 157.12v6.99l6.06 3.49v-6.99l-6.06-3.49z" fill="url(#CC)"/><path d="M105.69 158.86L99 155.02v6.21l6.69 3.87v-6.24z" fill="url(#CD)"/><path d="M106.27 120.25l6.68 3.84v-7.37l-6.68-3.86v7.39z" fill="url(#CE)"/><path d="M113.53 124.43l6.68 3.84v-7.35l-6.68-3.86v7.37z" fill="url(#CF)"/><path d="M99 116.07l6.69 3.84v-7.38L99 108.66v7.41z" fill="url(#CG)"/><path d="M120.79 128.61l6.68 3.84v-7.33l-6.68-3.86v7.35z" fill="url(#CH)"/><path d="M98.43 160.9v-6.22l-6.69-3.84v6.19l6.69 3.87z" fill="url(#CI)"/><path d="M135.31 129.66v7.31l6.68 3.84v-7.29l-6.68-3.86z" fill="url(#CJ)"/><path d="M128.05 132.78l6.68 3.85v-7.31l-6.68-3.86v7.32z" fill="url(#CK)"/><path d="M91.74 111.89l6.69 3.84v-7.4l-6.69-3.87v7.43z" fill="url(#CL)"/><path d="M91.17 142.18v-6.99l-5.95-3.42v6.99l5.95 3.42z" fill="url(#CM)"/><path d="M91.17 142.85l-6-3.42v6.76.23l5.94 3.42z" fill="url(#CN)"/><path d="M98.43 123.39v-6.99l-6.69-3.85v7l6.69 3.84z" fill="url(#CO)"/><use xlink:href="#Cg" x="75.86" y="51.2" fill="url(#CP)"/><path d="M85.22 115.79l5.95 3.42v-6.99l-5.95-3.42v6.99z" fill="url(#CQ)"/><path d="M91.17 134.53v-7l-5.95-3.42v6.99l5.95 3.43z" fill="url(#CR)"/><path d="M91.17 126.87v-6.99l-5.95-3.43v7l5.95 3.42z" fill="url(#CS)"/><path class="Du" d="M92.24 113.42v12.97l25.16 14.12v-12.42l-25.16-14.67z" fill="url(#CT)"/><path class="Dv" d="M92.24 136.42v12.97l25.16 14.12v-12.42l-25.16-14.67z" fill="url(#CU)"/><path class="Dw" d="M114.28 126.17v12.97l25.16 14.12v-12.42l-25.16-14.67z" fill="url(#CV)"/><path class="Dx" d="M114.28 149.17v12.97l25.16 14.12v-12.42l-25.16-14.67z" fill="url(#CW)"/><path class="Dy" d="M135.95 138.84v12.97l25.16 14.12V153.5l-25.16-14.66z" fill="url(#CX)"/><path class="Dz" d="M135.95 161.84v12.97l25.16 14.12V176.5l-25.16-14.66z" fill="url(#CY)"/><path class="EA" d="M9.24 65.67v12.97L34.4 92.77V80.34L9.24 65.67z" fill="url(#CZ)"/><path class="EB" d="M9.24 88.67v12.97l25.16 14.13v-12.43L9.24 88.67z" fill="url(#Ca)"/><path class="EC" d="M31.28 78.42v12.97l25.16 14.13V93.09L31.28 78.42z" fill="url(#Cb)"/><path class="ED" d="M31.28 101.42v12.97l25.16 14.12v-12.42l-25.16-14.67z" fill="url(#Cc)"/><path class="EE" d="M52.95 91.09v12.97l25.16 14.12v-12.43L52.95 91.09z" fill="url(#Cd)"/><path class="EF" d="M52.95 114.09v12.97l25.16 14.12v-12.43l-25.16-14.66z" fill="url(#Ce)"/></g></g></g></svg>