<svg xmlns="http://www.w3.org/2000/svg" viewBox="0 0 293.41 247.52" xmlns:v="https://vecta.io/nano"><style><![CDATA[.O{fill:#5793ce}.P{fill:#d4ecff}.Q{fill:#396caa}.R{fill:#fff}.S{fill:#ffc2b0}.T{fill:#173d7a}]]></style><g class="O"><path d="M254.807 219.936l.474 1.85-5.366 1.376-.474-1.85z"/><path d="M252.039 222.598l.474 1.85-5.367 1.375-.474-1.85z"/><path d="M249.292 225.267l.474 1.85-5.367 1.375-.474-1.85zm-2.695 2.686l.474 1.85-5.366 1.376-.474-1.85z"/></g><path d="M136.44 55.06L86.05 84.63c-12.78-3.92-29.06-2.71-39.8 3.6-13.07 7.66-13 20 .19 27.43a40.13 40.13 0 0 0 9.92 3.89 52.91 52.91 0 0 0 7.88 1.36c10.48 1 21.66-.85 29.73-5.58 9.76-5.73 12.18-14 7.28-21l7-4.08-.2-4.41h7.32l-.19-4.14 7.32-.05-.18-4.13h7.31l-.18-4.14h7.32l-.19-4.13 7.82-.06 2.38-1.39 2.63-10.86zm-70.91 56.58a13.68 13.68 0 0 1-12.37.08c-3.43-1.94-3.46-5.14 0-7.14a13.68 13.68 0 0 1 12.37-.08c3.38 1.94 3.4 5.14 0 7.14zM164 242.1L96.05 203c-4.58-2.64-4-7.25 1.28-10.31l66-38.08c5.28-3 13.27-3.38 17.85-.74l68 39.08c4.58 2.64 4 7.25-1.28 10.31l-66 38.08c-5.32 3.07-13.31 3.4-17.9.76z" fill="#c4d9e8"/><path d="M243.7,153.5,232,146.72l43.32-25c2.05-1.18,2.05-3.1,0-4.28L231,91.87a8.16,8.16,0,0,0-7.42,0l-43.33,25-11.75-6.79,43.33-25c8.52-4.92,22.39-4.92,30.92,0L287,110.63c8.52,4.93,8.52,12.94,0,17.86Z" class="O"/><path d="M262.66 156.49c0-6.28-3.82-13.58-8.53-16.3l-78.5-45.32c-2.11-1.22-4-1.3-5.53-.47h0l-93.72 54.46L167 217.15l92.33-53.59a4.46 4.46 0 0 0 .82-.47h0c1.55-1.17 2.51-3.46 2.51-6.6z" class="P"/><path d="M167,217.15l92.33-53.59a4.46,4.46,0,0,0,.82-.47h0c1.54-1.17,2.5-3.46,2.5-6.6a21,21,0,0,0-2.3-9.08L155.1,208.18Z" class="T"/><path d="M161.11 216.91l-78.5-45.32c-4.71-2.72-8.53-10-8.53-16.3h0c0-6.28 3.82-9.17 8.53-6.45l78.5 45.32c4.71 2.72 8.53 10 8.53 16.3h0c0 6.28-3.82 9.17-8.53 6.45z" class="O"/><path d="M149.35 201.62l-9.44-5.44a4.07 4.07 0 0 1-1.7-3.25h0c0-1.25.76-1.83 1.7-1.28l9.44 5.44a4.07 4.07 0 0 1 1.7 3.25h0c0 1.25-.76 1.83-1.7 1.28z" class="R"/><path d="M78.49 42.04l16.13 9.16 16.45-9.66-.04-4.2-.14.09-.02-.3 7.32-.05-.04-4.14 7.18-.05-.05-4.13 7.18-.05-.04-4.14 7.17-.05-.04-4.13 7.67-.06 2.39-1.4 2.63-10.85-.05-4.2-1.26 4.02-11.62-1.55-60.82 35.69z" class="Q"/><path d="M94.57 47l16.46-9.66-.2-4.41 7.32-.05-.19-4.14 7.32-.05-.18-4.13 7.32-.05-.19-4.14 7.32-.05-.18-4.13 7.81-.06 2.38-1.4 2.63-10.85-12.92-1.73-60.83 35.69L94.57 47z" class="P"/><path d="M105.53,40.57a22.69,22.69,0,0,0-7.47-6.44,38.29,38.29,0,0,0-7.73-3.27l-11.88,7L94.57,47Z" class="Q"/><path d="M151.75 5.7l.44-1.82-2.16-.29-51.39 30.15 2.7 1.54L151.75 5.7z" class="O"/><path d="M39.51 55.29l-.18-5.97 1.91 4.03-1.73 1.94z" fill="#d3d0cf"/><path d="M49.44 68.72C62.62 76.2 83.9 76.05 97 68.39c6.55-3.85 9.79-8.85 9.74-13.83h0l-.18-6.32-1.07 1.19c-1.52-3.12-4.41-6-8.69-8.48-13.17-7.49-34.45-7.34-47.52.33s-13.01 19.95.16 27.44zm19-11.17c3.43 2 3.45 5.15 0 7.14a13.65 13.65 0 0 1-12.37.09c-3.43-2-3.46-5.15 0-7.14a13.65 13.65 0 0 1 12.41-.09z" class="Q"/><path d="M49.27 62.75c13.17 7.49 34.45 7.34 47.52-.33s13-20-.19-27.44-34.46-7.33-47.53.33-12.98 19.96.2 27.44zm19-11.17c3.43 2 3.45 5.15 0 7.15a13.68 13.68 0 0 1-12.27.08c-3.43-2-3.45-5.14 0-7.14a13.68 13.68 0 0 1 12.3-.09z" fill="#f2f2f2"/><path d="M64.54,66a13.46,13.46,0,0,1-8.38-1.24c-2.46-1.4-3.16-3.43-2.11-5.21l-6-4.74-6.21-7c-4.8,7-2.27,15.3,7.57,20.9A41.5,41.5,0,0,0,64.18,73.4Z" class="O"/><path d="M49.27 62.75a39.9 39.9 0 0 0 9.91 3.89A53.14 53.14 0 0 0 67.06 68c10.48 1 21.67-.85 29.73-5.58 13.07-7.67 13-20-.19-27.44s-34.46-7.33-47.53.33-12.98 19.96.2 27.44zm19-11.17c3.43 2 3.45 5.15 0 7.15a13.68 13.68 0 0 1-12.27.08c-3.43-2-3.45-5.14 0-7.14a13.68 13.68 0 0 1 12.3-.09z" class="P"/><path d="M43 49.16c.64-3.83 3.48-7.56 8.53-10.53 11.62-6.82 30.55-7 42.28-.29 5.82 3.31 8.77 7.67 8.83 12.06.84-5-2.06-10.12-8.69-13.89-11.73-6.66-30.66-6.52-42.29.3-5.8 3.43-8.66 7.9-8.66 12.35zm-7.89 54.3a13.16 13.16 0 0 1-6.59-1.7c-4.72-2.68-7.35-8.06-7.4-15.16C21 73.65 30 57.79 41.21 51.23c6.12-3.59 12.09-4.09 16.79-1.41a13.26 13.26 0 0 1 4.89 4.89A20.37 20.37 0 0 1 65.42 65c.09 12.94-8.92 28.81-20.09 35.36a20.4 20.4 0 0 1-10.22 3.1zm16.31-50.58a15.7 15.7 0 0 0-7.8 2.45c-9.87 5.79-17.83 19.8-17.75 31.24 0 5.33 1.81 9.25 5 11.06s7.46 1.37 12.06-1.37c9.86-5.79 17.82-19.8 17.74-31.26a15.83 15.83 0 0 0-1.86-7.9h0a8.51 8.51 0 0 0-3.13-3.1 8.61 8.61 0 0 0-4.26-1.12z" class="Q"/><g class="P"><path d="M57.62,63.39,67,65.69l1.35-7A13.68,13.68,0,0,1,56,58.81Z"/><path d="M49.27,62.75a39.9,39.9,0,0,0,9.91,3.89A53.14,53.14,0,0,0,67.06,68c10.48,1,21.67-.85,29.73-5.58l-38.2-.86Z"/></g><path d="M63.38 67.57a55.84 55.84 0 0 1-8.29-2.13v5.86a45.85 45.85 0 0 0 8.19 2.1c8.72 1.15.1-5.83.1-5.83z" class="Q"/><path d="M57.29 66.14a38 38 0 0 1-5.4-2c-5.11-2.39 1.35 6.47 1.35 6.47l4 1.4zm95.84 102.98l-16.72 10.78-8.13-1.32 19.87-9.61 4.98.15z" class="O"/><path d="M132.92 223.55s-4.81-2.43-7.77 1.19-7.18 12.15-7.31 17.92 4.56 5.37 7.35 4 10.94-13.19 11.44-15.51-.59-5.45-1.37-6.06-2.34-1.54-2.34-1.54z" class="T"/><path d="M134 222.39l.22 5a2.81 2.81 0 0 1-1.4 2.59 5.54 5.54 0 0 1-3.72.58c-3.63-.58-3.95-1.62-4.21-6.6s9.11-1.57 9.11-1.57z" class="O"/><path d="M115.3,214s-4.82-2.43-7.77,1.19-7.19,12.15-7.32,17.91,4.56,5.38,7.36,4,10.94-13.19,11.43-15.51-.58-5.45-1.36-6.06S115.3,214,115.3,214Z" class="T"/><path d="M116.35 212.8l.22 5a2.82 2.82 0 0 1-1.41 2.59 5.49 5.49 0 0 1-3.71.58c-3.63-.58-4-1.62-4.21-6.61s9.11-1.56 9.11-1.56z" class="O"/><path d="M159.31 121.22c-1.43-23.19-25.11 3.41-25.11 3.41L118 140.52l-14.6 16a14.36 14.36 0 0 0-3.62 11.56l5.9 45a4.41 4.41 0 0 0 4.43 3.84 14.3 14.3 0 0 0 2.19-.19 5.49 5.49 0 0 0 4.88-5.83l-1.08-42.05 30.65-18.48s13.98-5.96 12.56-29.15z" class="P"/><path d="M127.8 160.9l-4.36-1.6c-.1 0-7.42 7.07-7.35 9.55l3.28 1.05 8.24-8zm25.33 8.22s18.22-10.4 20.4-14.76c.85-1.71 2.18-3.49-3.14-6.07L146.1 165.6l1.05 6z" class="O"/><path d="M176.93 130.17c-1.52-23.18-25.11 3.41-25.11 3.41l-16.21 15.89-14.6 16a14.4 14.4 0 0 0-3.62 11.56l5.9 45a4.43 4.43 0 0 0 4.44 3.84 15.56 15.56 0 0 0 2.18-.19 5.49 5.49 0 0 0 4.88-5.83l-1.08-42.06 30.66-18.48s13.95-7.95 12.56-29.14z" class="P"/><path d="M162.92 55.63c18 7.44 17.6 18.06 17.6 18.06s-3.52 38.91-2.32 64.9c.5 10.86-57.72 11.69-49-17.29 10.24-34.18 6.4-61.84 11.19-66s17.89-1.6 22.53.33z" class="O"/><path d="M168.7 65c-.94 3.64-5.72 5.57-10.67 4.29s-8.21-5.27-7.27-8.91 5.72-5.57 10.67-4.29 8.21 5.3 7.27 8.91z" class="S"/><path d="M161.06 70.58a13.1 13.1 0 0 1-3.24-.42 11.94 11.94 0 0 1-6.3-3.85 6.89 6.89 0 0 1-1.59-6.11c1-4.09 6.31-6.3 11.71-4.9a11.94 11.94 0 0 1 6.3 3.85 6.88 6.88 0 0 1 1.59 6.1c-.84 3.27-4.35 5.33-8.47 5.33zm-2.7-14c-3.34 0-6.13 1.55-6.77 4a5.21 5.21 0 0 0 1.26 4.59 10.23 10.23 0 0 0 5.39 3.28c4.49 1.15 8.81-.49 9.63-3.68a5.21 5.21 0 0 0-1.26-4.58 10.17 10.17 0 0 0-5.39-3.19 11.58 11.58 0 0 0-2.86-.41z" class="R"/><path d="M155.72 54.82a43.19 43.19 0 0 1-.15 6.41c-.1 1.79 6.16 3.46 7.78 1.84s1-3.3 1.36-9.39-8.99 1.14-8.99 1.14z" class="S"/><path d="M164.71,53.68s-1.54,5.64-9.15,7.81l.12-5.13Z" fill="#ea9c92"/><path d="M169.53 39.34a13.82 13.82 0 1 1-16.84-9.93 13.82 13.82 0 0 1 16.84 9.93z" class="S"/><path d="M159.32,43.3s-7.61,3.26-12.88,3.3-4.11-4.38-4.11-4.38L158,40Z" fill="#ea9c92"/><path d="M144.87 44.16s6.63-2.81 12.44-1.64a6.13 6.13 0 0 1 3.52 2.09 2.09 2.09 0 0 0 1.06.77c1 .23 2.72-4.05 4.73-4.14s3.34 1.32 1.7 3.95-1.09 5.57-.34 6 8.78-5.72 1.71-19.74-25.05-6.45-27.85-3.63c0 0-2.94 2.57-5.34.29 0 0-2.68 20.1 8.37 16.05z" fill="#ea1f2e"/><path d="M170.44,102.12v10.51a4.28,4.28,0,0,1-1.39,3.17l-21.6,19.69,2.45,3.75,28.53-20.68a5.82,5.82,0,0,0,2.36-4.09l1.93-18.34Z" class="S"/><path d="M179,68.43s6.55,9.85,9,35.79c0,0-11.19,3.63-17.55,1.57S179,68.43,179,68.43Z" class="O"/><path d="M169.25,80.89s-2.57,13.73-2.71,20.18a4.11,4.11,0,0,0,2.71,4h0Z" class="Q"/><path d="M163.64,149.16l-4.77-.63-30.82-17.79a4.27,4.27,0,0,0-3.85.16l-21.84,12.6-2.89-.38V146h0a1.15,1.15,0,0,0,.67,1l34.92,20.16a4.29,4.29,0,0,0,3.86-.16l23.78-13.72a1.56,1.56,0,0,0,.94-1.3h0Z" class="T"/><path d="M140.49,137.92l-2.19-1.26H114.23l-11.87,6.84-2.89-.38V146h0a1.15,1.15,0,0,0,.67,1l34.92,20.16a3.72,3.72,0,0,0,2,.38Z" class="Q"/><path d="M100.75,143.29l-1.28-.17V146h0a1.15,1.15,0,0,0,.67,1l.61.35Z" class="O"/><path d="M135.42,167.34a4.5,4.5,0,0,0,3.27-.21v-4.89h-3.27Z" fill="#274f89"/><path d="M135.06 164.3l-34.92-20.16c-1-.57-.87-1.57.27-2.23l23.79-13.73a4.3 4.3 0 0 1 3.85-.16L163 148.19c1 .57.86 1.57-.28 2.22l-23.78 13.73a4.29 4.29 0 0 1-3.88.16z" class="R"/><path d="M134.47 161.24l-29-16.76c-.82-.48-.72-1.31.23-1.85l12.75-7.17a3.53 3.53 0 0 1 3.2-.13l29 16.76c.82.48.72 1.31-.23 1.86l-12.74 7.16a3.55 3.55 0 0 1-3.21.13z" class="P"/><g class="S"><path d="M125.55 127.52l-.36 2.41a17.81 17.81 0 0 0 .15 6.18l.43 2.12a3 3 0 0 0 2.4 2.35h0a1.65 1.65 0 0 0 1.93-1.44l.57-5.15s1.32 1.73 2 1.73-.71-5.16-2.15-8.08-4.97-.12-4.97-.12z"/><path d="M137.39,89.22l-3.75,7.42a14.55,14.55,0,0,0-1.54,5.63l-1.62,25.37-4.93-.12L123.31,99a10.08,10.08,0,0,1,.13-2.63L126,82Z"/></g><path d="M133.88 166.24l-2.88-3.83-30.79-17.83a4.28 4.28 0 0 1-1.79-3.42v-25.21l-1.77-2.31 1.66-1h0a1.12 1.12 0 0 1 1.21.07L134.4 133a4.31 4.31 0 0 1 1.79 3.42v27.46a1.57 1.57 0 0 1-.66 1.47h0z" class="T"/><path d="M112.58,151.78l-2.18-1.27-12-20.86,0-13.7-1.77-2.31,1.66-1h0a1.12,1.12,0,0,1,1.21.07L134.4,133a3.75,3.75,0,0,1,1.32,1.54Z" class="Q"/><path d="M97.41,114.66l-.78-1,1.66-1h0a1.12,1.12,0,0,1,1.21.07l.61.35Z" class="O"/><path d="M134.72,133.18a4.52,4.52,0,0,1,1.46,2.94l-3.41,2-1.64-2.84Z" fill="#274f89"/><path d="M132.74 133.92l-34.9-20.21c-1-.57-1.79 0-1.79 1.35v27.46a4.27 4.27 0 0 0 1.78 3.42l34.9 20.21c1 .57 1.79 0 1.79-1.35v-27.46a4.24 4.24 0 0 0-1.78-3.42z" class="O"/><path d="M149.9,139.24l-.56,1.16a7.75,7.75,0,0,1-2.92,3.24L143,145.77a3.46,3.46,0,0,1-3.54.09l-.12-.08a2.09,2.09,0,0,1-.3-3.2l3.63-3.73s-2,1.56-2.61.94c-.42-.46,2-2.71,3.81-2.78a7.32,7.32,0,0,0,3.62-1.52Z" class="S"/><path d="M140.71 55.23s-13.28 14.45-18.63 27.71a27.1 27.1 0 0 0 15.65 11.39c11.12 3.21 2.98-39.1 2.98-39.1z" class="O"/><path d="M135.23 93.47l2.16-20.79-5.08 19.48a30.23 30.23 0 0 0 2.92 1.31z" class="Q"/><path d="M150.66,52.31l-3.57-1a8.68,8.68,0,0,0,4.19,3.37c2.49.68,2.88-1.43,2.88-1.43Z" class="R"/><path d="M82.93 20.37a10 10 0 1 1 10-10 10 10 0 0 1-10 10zm0-17.81a7.82 7.82 0 1 0 7.81 7.81 7.82 7.82 0 0 0-7.81-7.81z" class="P"/><path d="M285 92.4a7.09 7.09 0 1 1 7.09-7.09A7.1 7.1 0 0 1 285 92.4zm0-12a4.91 4.91 0 1 0 4.91 4.91A4.92 4.92 0 0 0 285 80.4zM52.6 220.46l-4.81-9.78 9.78-4.82 4.81 9.79zm-1.89-8.79l2.88 5.87 5.87-2.89-2.88-5.87zM194.62 68.79L189.81 59l9.79-4.81 4.81 9.81zM192.73 60l2.89 5.88 5.87-2.88-2.89-5.87zM34.956 162.99l4.496-2.21 2.21 4.496-4.496 2.21z" class="O"/><path d="M215.77 15.69L189 .25a1.34 1.34 0 0 0-1.38-.11h0l-2.59 1.5 1.82.67v19.45a5.19 5.19 0 0 0 2.15 4.11l25.56 14.75v2.29l2.62-1.51h0a1.92 1.92 0 0 0 .72-1.72V19.8a5.13 5.13 0 0 0-2.13-4.11z" fill="#d81e1e"/><path d="M213.13 42.83l-26.74-15.44a5.14 5.14 0 0 1-2.15-4.11V3.4c0-1.59 1-2.31 2.15-1.63l26.74 15.44a5.16 5.16 0 0 1 2.15 4.11V41.2c0 1.59-.96 2.31-2.15 1.63z" fill="#e23423"/><path d="M195.38 20.54c0 1.15-.8 1.62-1.8 1a4 4 0 0 1-1.8-3.12c0-1.15.8-1.62 1.8-1a4 4 0 0 1 1.8 3.12zm5.47 3.16c0 1.15-.81 1.61-1.8 1a4 4 0 0 1-1.81-3.13c0-1.15.81-1.61 1.81-1a4 4 0 0 1 1.8 3.13zm5.47 3.15c0 1.15-.81 1.62-1.81 1a4 4 0 0 1-1.8-3.12c0-1.15.8-1.62 1.8-1a4 4 0 0 1 1.81 3.12z" class="R"/><path d="M30.93 184.84L4.7 169.7a1.34 1.34 0 0 0-1.35-.11h0L.8 171l1.79.65v19.15a5.07 5.07 0 0 0 2.11 4l25.07 14.48v2.24l2.57-1.48h0a1.88 1.88 0 0 0 .71-1.68v-19.49a5 5 0 0 0-2.12-4.03z" class="O"/><path d="M28.34 211.47L2.11 196.32a5 5 0 0 1-2.11-4v-19.5c0-1.56.94-2.27 2.11-1.6l26.23 15.14a5.06 5.06 0 0 1 2.11 4v19.5c0 1.57-.94 2.28-2.11 1.61z" class="P"/><path d="M10.93 189.6c0 1.13-.79 1.59-1.77 1a3.89 3.89 0 0 1-1.77-3.06c0-1.13.79-1.59 1.77-1a3.89 3.89 0 0 1 1.77 3.06zm5.36 3.1c0 1.13-.79 1.58-1.77 1a4 4 0 0 1-1.77-3.07c0-1.13.8-1.58 1.77-1a3.92 3.92 0 0 1 1.77 3.07zm5.37 3.09c0 1.13-.8 1.59-1.77 1a3.89 3.89 0 0 1-1.77-3.06c0-1.13.79-1.59 1.77-1a3.91 3.91 0 0 1 1.77 3.06z" class="R"/></svg>