<svg xmlns="http://www.w3.org/2000/svg" viewBox="0 0 297.99 190.68"><defs><style>.cls-1,.cls-2{fill:none;stroke:#000;stroke-miterlimit:10;}.cls-1{stroke-width:12px;}.cls-2{stroke-linecap:round;stroke-width:11.22px;}</style></defs><g id="Layer_2" data-name="Layer 2"><g id="main_layer" data-name="main layer"><circle class="cls-1" cx="63.81" cy="157.68" r="27"/><line class="cls-1" x1="94.81" y1="160.68" x2="201.81" y2="160.68"/><circle class="cls-1" cx="230.81" cy="157.68" r="27"/><path class="cls-1" d="M31.81,160.68c-2.1.19-11.81.84-19-6a23.37,23.37,0,0,1-6-10c-1.16-3.44-1-5.22,0-21,.61-9.5.76-12.18,3-15a15.43,15.43,0,0,1,8-5l50-14,5-6,26-33a20.54,20.54,0,0,1,8-7,21.65,21.65,0,0,1,10.5-2c6.36.24,27.89.22,59,.12"/><line class="cls-1" x1="243.29" y1="71.66" x2="255.81" y2="90.68"/><path class="cls-1" d="M253.81,88.68l30,14a24.16,24.16,0,0,1,3,4,23.91,23.91,0,0,1,3,8"/><path class="cls-1" d="M260.81,160.68l11.57.22a25.37,25.37,0,0,0,7.43-2.22,20.39,20.39,0,0,0,7-5,19.08,19.08,0,0,0,4-8c3-11-.64-30.17-1-32"/><line class="cls-2" x1="250.02" y1="33.1" x2="195.05" y2="33.1"/><line class="cls-2" x1="222.53" y1="5.61" x2="222.53" y2="60.59"/></g></g></svg>