<svg xmlns="http://www.w3.org/2000/svg" viewBox="0 0 305.94 156.21"><title>Fichier 2</title><g id="Calque_2" data-name="Calque 2"><g id="Black"><path d="M301,119.22H266.93A49.29,49.29,0,0,0,219.77,70c8.3-1.41,21.18-.66,40,7.46H290.1s-9.69-12.72-6.66-23c0,0-34.53-10.9-67.84.6S108.4,73.8,60,69c0,0,2.28-.11,6.28-.36l1-.06,2.85-.2,1.1-.07,4.46-.33,1.89-.14c2.58-.2,5.38-.43,8.38-.69l2.59-.23.54,0,1.83-.17c2.67-.24,5.46-.51,8.35-.81l4-.42,1.65-.18,1.24-.14,3.86-.44,2.45-.28.1,0,2.48-.3,2.71-.34,2.52-.32q4.68-.61,9.47-1.3l2.54-.38,1.51-.22,2.58-.4.14,0,2.57-.42q3.48-.56,6.94-1.17l1.36-.24c.85-.14,1.7-.3,2.55-.46l2.69-.5c1.79-.34,3.58-.69,5.35-1.06l.17,0c1.71-.35,3.42-.71,5.11-1.09a1,1,0,0,0,.17,0c2.56-.56,5.09-1.15,7.57-1.76,1-.25,2.08-.51,3.1-.78,1.42-.36,2.82-.74,4.2-1.12l.32-.09,2.25-.64c2.38-.69,4.71-1.4,7-2.15.69-.22,1.36-.44,2-.68l.2-.07.16,0,.13,0,.07,0h0c8.36-2.91,15.55-6.23,20.88-10,0,0-33.52-27.45-103-24.23C49.33,17.19.76,38.34,0,38.67c.32-.32,10.8-10.49,43-23C75.7,2.94,112.84-7.15,166.54,6.57c49.34,12.61,41.67,35.47,123,32.83q3.59-.12,7.4-.3a3.68,3.68,0,0,1,3.37,5.54c-3.8,6.52-7.62,17.59.09,29.16C312.5,92,301,119.22,301,119.22Z"/><path d="M202.64,156.2a46.76,46.76,0,0,1-22.72-6.28h0c-1.37-.8-2.7-1.65-4-2.57l-56.89-36.74a47.19,47.19,0,0,0,47,1.75s2.77-1.56,4.08-2.43L210.43,86c17.49-10.4,39.81,1.92,40.14,22.27,0,.14,0,.29,0,.43A47.14,47.14,0,0,1,202.64,156.2Z"/></g></g></svg>