<svg xmlns="http://www.w3.org/2000/svg" viewBox="0 0 353.37 168.11"><defs><style>.cls-1{fill:#f03f53;}</style></defs><title>LogoSite</title><g id="Calque_2" data-name="Calque 2"><g id="Color_2_Car_" data-name="Color 2 (Car)"><path class="cls-1" d="M347.66,137.7H308.32a56.93,56.93,0,0,0-54.48-56.88c9.59-1.64,24.47-.77,46.25,8.62h35s-11.2-14.69-7.7-26.59c0,0-39.87-12.59-78.35.7S125.21,85.24,69.25,79.65c0,0,2.63-.13,7.25-.42l1.19-.07L81,78.94l1.28-.09,5.15-.37,2.19-.17c3-.23,6.21-.49,9.67-.79l3-.27.63,0L105,77c3.09-.28,6.31-.6,9.64-.94l4.69-.49,1.91-.21,1.42-.15,4.46-.51,2.84-.33.11,0,2.86-.34,3.14-.4,2.9-.37q5.41-.7,10.94-1.51c1-.13,2-.28,2.94-.43l1.74-.26,3-.46.16,0,3-.48q4-.64,8-1.35l1.57-.28c1-.17,2-.34,2.94-.53l3.11-.58c2.07-.4,4.13-.8,6.18-1.22l.19,0c2-.4,4-.82,5.91-1.26l.19,0q4.44-1,8.75-2,1.8-.44,3.57-.9c1.64-.42,3.27-.85,4.86-1.29l.37-.1,2.59-.74c2.76-.8,5.45-1.62,8-2.48.8-.27,1.58-.52,2.35-.8l.23-.07.19-.07.15,0,.08,0h0c9.66-3.37,18-7.2,24.12-11.55,0,0-38.72-31.72-118.92-28C57,19.86.88,44.29,0,44.66c.37-.36,12.48-12.11,49.66-26.57,37.78-14.7,80.68-26.35,142.7-10.5,57,14.56,48.13,41,142.06,37.91q4.14-.14,8.55-.34a4.25,4.25,0,0,1,3.89,6.4c-4.39,7.53-8.8,20.32.1,33.68C361,106.22,347.66,137.7,347.66,137.7Z"/><path class="cls-1" d="M245,168.11a46.25,46.25,0,0,1-22.35-6.18h0q-2-1.17-3.91-2.52l-56-36.15A46.4,46.4,0,0,0,209,125s2.73-1.53,4-2.39L252.69,99c17.21-10.23,39.17,1.89,39.5,21.91v.43A46.38,46.38,0,0,1,245,168.11Z"/></g></g></svg>