<svg height="440pt" viewBox="-16 0 440 440.232" width="440pt" xmlns="http://www.w3.org/2000/svg"><path d="m274.441406 272c30.3125-64.152344 46.3125-111.121094 46.3125-136 0-75.109375-60.890625-136-136-136s-136 60.890625-136 136c0 24.886719 16 71.886719 46.351563 136.089844zm-89.6875-192c30.929688 0 56 25.070312 56 56s-25.070312 56-56 56c-30.929687 0-56-25.070312-56-56 .035156-30.914062 25.085938-55.964844 56-56zm0 0"/><path d="m384.753906 288c-13.253906 0-24 10.746094-24 24 .011719 3.5625.835938 7.078125 2.398438 10.28125l-34.398438 34.398438-56.34375-56.34375c-1.5-1.5-3.535156-2.34375-5.65625-2.34375h-164c-2.121094 0-4.15625.84375-5.65625 2.34375l-62.0625 62.0625c-10.6875-5.164063-23.542968-1.867188-30.417968 7.808593-6.878907 9.671875-5.769532 22.894531 2.617187 31.292969 8.390625 8.394531 21.613281 9.511719 31.292969 2.640625 9.679687-6.871094 12.984375-19.722656 7.828125-30.414063l59.726562-59.726562h9.632813c27.597656 54.320312 56.238281 104.335938 69.039062 126.230469 12.800782-21.894531 41.441406-71.917969 69.039063-126.230469h9.648437l59.65625 59.65625c3.125 3.121094 8.1875 3.121094 11.3125 0l40.0625-40.054688c3.203125 1.5625 6.71875 2.382813 10.28125 2.398438 13.253906 0 24-10.746094 24-24s-10.746094-24-24-24zm0 0"/></svg>